<?xml version="1.0" standalone="no"?>
<!DOCTYPE svg PUBLIC "-//W3C//DTD SVG 20010904//EN"
 "http://www.w3.org/TR/2001/REC-SVG-20010904/DTD/svg10.dtd">
<svg version="1.0" xmlns="http://www.w3.org/2000/svg"
 width="143.000000pt" height="143.000000pt" viewBox="0 0 143.000000 143.000000"
 preserveAspectRatio="xMidYMid meet">
<metadata>
Created by potrace 1.11, written by Peter Selinger 2001-2013
</metadata>
<g transform="translate(0.000000,143.000000) scale(0.100000,-0.100000)"
fill="#000000" stroke="none">
<path d="M0 765 l0 -305 263 2 262 3 -257 2 -258 3 0 295 0 295 705 0 705 0 0
-295 0 -295 -257 -3 -258 -2 263 -3 262 -2 0 305 0 305 -715 0 -715 0 0 -305z"/>
<path d="M20 765 l0 -285 266 0 c208 0 265 3 262 13 -4 9 -65 13 -251 15
l-247 2 0 255 0 255 665 0 665 0 0 -255 0 -255 -247 -2 c-186 -2 -247 -6 -251
-15 -3 -10 54 -13 262 -13 l266 0 0 285 0 285 -695 0 -695 0 0 -285z"/>
<path d="M510 780 c0 -82 3 -100 15 -100 12 0 15 18 15 100 0 82 -3 100 -15
100 -12 0 -15 -18 -15 -100z"/>
<path d="M890 780 c0 -82 3 -100 15 -100 12 0 15 18 15 100 0 82 -3 100 -15
100 -12 0 -15 -18 -15 -100z"/>
<path d="M622 854 c-36 -25 -31 -88 11 -130 33 -35 77 -46 77 -19 0 9 -9 15
-22 15 -23 1 -23 1 -3 16 15 11 20 27 20 59 0 24 -4 48 -10 53 -20 19 -51 22
-73 6z m48 -60 c0 -28 -4 -35 -17 -32 -22 4 -29 44 -13 63 18 22 30 9 30 -31z"/>
<path d="M340 850 c0 -5 9 -10 20 -10 18 0 20 -7 20 -55 0 -48 2 -55 20 -55
18 0 20 7 20 55 0 48 2 55 20 55 11 0 20 5 20 10 0 6 -27 10 -60 10 -33 0 -60
-4 -60 -10z"/>
<path d="M970 850 c0 -5 9 -10 20 -10 18 0 20 -7 20 -55 0 -48 2 -55 20 -55
18 0 20 7 20 55 0 48 2 55 20 55 11 0 20 5 20 10 0 6 -27 10 -60 10 -33 0 -60
-4 -60 -10z"/>
<path d="M263 830 c-52 -23 -55 -45 -10 -64 64 -26 77 -28 77 -12 0 8 -16 20
-35 26 -40 13 -38 25 5 35 17 4 30 13 30 21 0 18 -15 17 -67 -6z"/>
<path d="M1100 836 c0 -8 13 -17 30 -21 43 -10 45 -22 5 -35 -19 -6 -35 -18
-35 -26 0 -11 6 -13 22 -8 103 32 115 60 39 87 -59 21 -61 21 -61 3z"/>
<path d="M730 790 c0 -57 12 -68 66 -62 l35 4 -3 52 c-2 39 -7 52 -20 54 -15
3 -18 -4 -18 -37 0 -42 -14 -62 -24 -35 -3 9 -6 29 -6 45 0 19 -5 29 -15 29
-11 0 -15 -12 -15 -50z"/>
<path d="M640 610 c0 -5 7 -10 15 -10 8 0 15 5 15 10 0 6 -7 10 -15 10 -8 0
-15 -4 -15 -10z"/>
<path d="M680 610 c0 -5 7 -10 15 -10 8 0 15 5 15 10 0 6 -7 10 -15 10 -8 0
-15 -4 -15 -10z"/>
<path d="M720 610 c0 -5 7 -10 15 -10 8 0 15 5 15 10 0 6 -7 10 -15 10 -8 0
-15 -4 -15 -10z"/>
<path d="M760 610 c0 -5 9 -10 20 -10 11 0 20 5 20 10 0 6 -9 10 -20 10 -11 0
-20 -4 -20 -10z"/>
<path d="M610 580 c0 -5 -7 -10 -15 -10 -21 0 -19 -28 3 -33 16 -4 16 -5 0 -6
-22 -1 -24 -31 -3 -31 8 0 15 -4 15 -10 0 -5 -7 -10 -15 -10 -8 0 -15 -4 -15
-10 0 -5 7 -10 15 -10 8 0 15 -4 15 -10 0 -5 -7 -10 -15 -10 -8 0 -15 -7 -15
-15 0 -8 7 -15 15 -15 8 0 15 -4 15 -10 0 -5 7 -10 15 -10 8 0 15 -7 15 -15 0
-8 7 -15 16 -15 10 0 14 6 10 15 -3 8 -1 15 4 15 6 0 10 -7 10 -15 0 -8 7 -15
16 -15 10 0 14 6 10 15 -3 9 0 15 9 15 9 0 12 -6 9 -15 -4 -9 0 -15 10 -15 9
0 16 7 16 15 0 8 4 15 10 15 5 0 9 -5 7 -12 -1 -6 7 -14 17 -16 14 -3 17 0 13
12 -4 10 -1 16 8 16 8 0 15 5 15 10 0 6 7 10 15 10 8 0 15 7 15 15 0 8 -7 15
-15 15 -8 0 -15 5 -15 10 0 6 7 10 15 10 8 0 15 5 15 10 0 6 -7 10 -15 10 -8
0 -15 5 -15 10 0 6 7 10 15 10 21 0 19 28 -2 33 -17 4 -17 5 0 6 21 1 23 31 2
31 -8 0 -15 5 -15 10 0 6 -42 10 -105 10 -63 0 -105 -4 -105 -10z m60 -24 c0
-11 -19 -15 -25 -6 -3 5 1 10 9 10 9 0 16 -2 16 -4z m120 -120 c0 -11 -19 -15
-25 -6 -3 5 1 10 9 10 9 0 16 -2 16 -4z"/>
</g>
</svg>
