<?xml version="1.0" standalone="no"?>
<!DOCTYPE svg PUBLIC "-//W3C//DTD SVG 20010904//EN"
 "http://www.w3.org/TR/2001/REC-SVG-20010904/DTD/svg10.dtd">
<svg version="1.0" xmlns="http://www.w3.org/2000/svg"
 width="143.000000pt" height="143.000000pt" viewBox="0 0 143.000000 143.000000"
 preserveAspectRatio="xMidYMid meet">
<metadata>
Created by potrace 1.11, written by Peter Selinger 2001-2013
</metadata>
<g transform="translate(0.000000,143.000000) scale(0.100000,-0.100000)"
fill="#000000" stroke="none">
<path d="M0 765 l0 -305 258 2 257 3 -252 2 -253 3 0 295 0 295 705 0 705 0 0
-295 0 -295 -252 -3 -253 -2 258 -3 257 -2 0 305 0 305 -715 0 -715 0 0 -305z"/>
<path d="M20 765 l0 -285 261 0 c198 0 260 3 257 12 -3 9 -69 12 -249 12
l-244 1 -2 260 -2 260 672 0 672 0 0 -260 0 -260 -240 -2 c-279 -2 -255 0
-255 -13 0 -6 93 -10 260 -10 l260 0 0 285 0 285 -695 0 -695 0 0 -285z"/>
<path d="M513 780 c0 -70 2 -90 13 -90 11 0 14 20 14 90 0 68 -3 90 -13 90
-10 0 -14 -22 -14 -90z"/>
<path d="M890 780 c0 -70 3 -90 14 -90 11 0 13 20 13 90 0 68 -4 90 -14 90
-10 0 -13 -22 -13 -90z"/>
<path d="M350 850 c0 -5 8 -10 19 -10 15 0 19 -8 19 -37 0 -67 2 -73 15 -73 9
0 13 14 12 43 -2 51 3 67 21 67 8 0 14 5 14 10 0 6 -22 10 -50 10 -27 0 -50
-4 -50 -10z"/>
<path d="M616 844 c-9 -8 -16 -30 -16 -48 0 -53 83 -131 104 -97 3 5 -4 11
-16 14 -21 6 -21 7 -4 26 21 23 24 84 6 106 -16 20 -55 19 -74 -1z m53 -21
c11 -22 11 -34 0 -55 -15 -27 -39 -10 -39 26 0 47 21 62 39 29z"/>
<path d="M980 850 c0 -5 7 -10 15 -10 16 0 17 -4 19 -64 1 -22 7 -41 14 -43
13 -5 14 -1 14 61 0 29 5 40 19 43 37 10 18 23 -31 23 -27 0 -50 -4 -50 -10z"/>
<path d="M1105 839 c-4 -5 12 -17 35 -26 l43 -17 -42 -18 c-54 -23 -45 -42 10
-20 43 17 68 46 46 55 -6 3 -29 12 -49 21 -24 10 -39 12 -43 5z"/>
<path d="M253 820 c-18 -11 -33 -23 -33 -28 0 -13 99 -51 106 -41 3 5 -14 17
-37 27 l-43 18 42 17 c23 9 42 19 42 22 0 12 -48 3 -77 -15z"/>
<path d="M736 833 c-8 -9 -7 -75 2 -90 4 -6 24 -11 45 -10 l37 1 0 53 c0 40
-3 51 -14 47 -8 -3 -12 -17 -11 -34 1 -15 -1 -34 -5 -40 -13 -21 -30 -1 -30
35 0 33 -11 51 -24 38z"/>
<path d="M640 610 c0 -5 5 -10 10 -10 6 0 10 5 10 10 0 6 -4 10 -10 10 -5 0
-10 -4 -10 -10z"/>
<path d="M680 610 c0 -5 4 -10 9 -10 6 0 13 5 16 10 3 6 -1 10 -9 10 -9 0 -16
-4 -16 -10z"/>
<path d="M725 610 c3 -5 10 -10 16 -10 5 0 9 5 9 10 0 6 -7 10 -16 10 -8 0
-12 -4 -9 -10z"/>
<path d="M770 610 c0 -5 5 -10 10 -10 6 0 10 5 10 10 0 6 -4 10 -10 10 -5 0
-10 -4 -10 -10z"/>
<path d="M620 554 c0 -28 -3 -35 -15 -30 -9 3 -15 0 -15 -10 0 -10 6 -14 15
-10 12 4 15 -5 15 -53 l0 -58 95 0 c88 0 95 1 95 20 0 16 3 17 14 8 10 -9 16
-9 21 -1 4 7 -2 14 -13 17 -17 4 -21 13 -21 59 0 29 3 53 7 53 20 -3 32 2 27
12 -4 6 -13 8 -21 5 -8 -3 -14 1 -14 9 0 12 -18 15 -95 15 l-95 0 0 -36z m50
-5 c0 -5 -7 -9 -15 -9 -15 0 -20 12 -9 23 8 8 24 -1 24 -14z m120 -120 c0 -5
-7 -9 -15 -9 -15 0 -20 12 -9 23 8 8 24 -1 24 -14z"/>
<path d="M586 561 c-3 -5 1 -11 9 -15 9 -3 15 0 15 9 0 16 -16 20 -24 6z"/>
<path d="M825 519 c-10 -15 3 -25 16 -12 7 7 7 13 1 17 -6 3 -14 1 -17 -5z"/>
<path d="M580 470 c0 -5 7 -10 15 -10 8 0 15 5 15 10 0 6 -7 10 -15 10 -8 0
-15 -4 -15 -10z"/>
<path d="M820 470 c0 -5 7 -10 15 -10 8 0 15 5 15 10 0 6 -7 10 -15 10 -8 0
-15 -4 -15 -10z"/>
<path d="M586 431 c-3 -5 1 -11 9 -15 9 -3 15 0 15 9 0 16 -16 20 -24 6z"/>
<path d="M640 370 c0 -5 5 -10 10 -10 6 0 10 5 10 10 0 6 -4 10 -10 10 -5 0
-10 -4 -10 -10z"/>
<path d="M680 370 c0 -5 4 -10 9 -10 6 0 13 5 16 10 3 6 -1 10 -9 10 -9 0 -16
-4 -16 -10z"/>
<path d="M725 370 c3 -5 10 -10 16 -10 5 0 9 5 9 10 0 6 -7 10 -16 10 -8 0
-12 -4 -9 -10z"/>
<path d="M770 370 c0 -5 5 -10 10 -10 6 0 10 5 10 10 0 6 -4 10 -10 10 -5 0
-10 -4 -10 -10z"/>
</g>
</svg>
