<svg xmlns="http://www.w3.org/2000/svg" xmlns:xlink="http://www.w3.org/1999/xlink" width="235.991" height="158.888" viewBox="0 0 235.991 158.888">
  <defs>
    <linearGradient id="linear-gradient" x1="0.438" y1="0.287" x2="0.562" y2="0.825" gradientUnits="objectBoundingBox">
      <stop offset="0" stop-color="#f1f4fe"/>
      <stop offset="0.58" stop-color="#f6f8fe"/>
      <stop offset="1" stop-color="#fff"/>
    </linearGradient>
    <linearGradient id="linear-gradient-2" x1="0.74" y1="0.98" x2="0.296" y2="0.031" gradientUnits="objectBoundingBox">
      <stop offset="0" stop-color="#e4e7fb"/>
      <stop offset="0.122" stop-color="#edf0fd"/>
      <stop offset="0.276" stop-color="#f1f4fe"/>
      <stop offset="0.696" stop-color="#f6f8fe"/>
      <stop offset="1" stop-color="#fff"/>
    </linearGradient>
    <linearGradient id="linear-gradient-3" x1="0.682" y1="0.785" x2="0.242" y2="0.196" gradientUnits="objectBoundingBox">
      <stop offset="0" stop-color="#b7c0eb"/>
      <stop offset="0.179" stop-color="#ccd2f2"/>
      <stop offset="0.383" stop-color="#dde1f8"/>
      <stop offset="0.533" stop-color="#e4e7fb"/>
      <stop offset="1" stop-color="#fefefc"/>
    </linearGradient>
    <linearGradient id="linear-gradient-4" x1="0.318" y1="0.099" x2="0.747" y2="0.862" gradientUnits="objectBoundingBox">
      <stop offset="0" stop-color="#f1f4fe"/>
      <stop offset="0.328" stop-color="#fefeff"/>
      <stop offset="0.692" stop-color="#f1f4fe"/>
      <stop offset="0.828" stop-color="#e7eafb"/>
      <stop offset="1" stop-color="#e4e7fb"/>
    </linearGradient>
    <linearGradient id="linear-gradient-5" y1="0.5" x2="1" y2="0.5" gradientUnits="objectBoundingBox">
      <stop offset="0" stop-color="#9da9ea"/>
      <stop offset="0.5" stop-color="#6c85d6"/>
      <stop offset="1" stop-color="#646ecb"/>
    </linearGradient>
  </defs>
  <g id="cloud2" transform="translate(0 0)">
    <g id="Group_3561" data-name="Group 3561" transform="translate(5.095 43.794)" opacity="0.294" style="mix-blend-mode: multiply;isolation: isolate">
      <path id="Path_4733" data-name="Path 4733" d="M1119.371,220.3c.727-.425-15.843-.577-32.863-.347s-34.492.842-35.567,1.946c-1.494,3.612.929,12.26,6.083,23.224a234.154,234.154,0,0,0,22.477,37.111c9.435,12.87,20.42,25.331,31.769,34.663s23.064,15.533,33.961,15.882c21.792.7,22.3-27.422,13.871-55.716-4.214-14.147-10.661-28.337-17.8-38.991S1126.343,220.3,1119.371,220.3Z" transform="translate(-933.267 -219.85)" fill="#fff" opacity="0"/>
      <path id="Path_4734" data-name="Path 4734" d="M1046.894,222.254c-.726,1.673-.573,4.386.175,7.908a47.5,47.5,0,0,0,1.953,6.382c.954,2.656,2.2,5.557,3.669,8.648a222.02,222.02,0,0,0,22.694,36.858c.659.872,1.338,1.733,2.018,2.6,4.016,5.1,8.255,10.115,12.648,14.871a173.849,173.849,0,0,0,18.35,17.39,86.948,86.948,0,0,0,19.885,12.538q.969.416,1.935.79a41.158,41.158,0,0,0,5.1,1.614,32.063,32.063,0,0,0,7.3.918,19.328,19.328,0,0,0,3.476-.093c17.886-2.6,18.948-28.514,10.523-55.18-4.1-14.341-10.632-28.535-17.977-39.168s-15.5-17.7-22.841-17.8c.19-.494-16.365-.658-33.276-.42-9.518.142-19.027.45-25.724.868-1.224.041-2.351.1-3.366.162C1049.76,221.444,1047.33,221.806,1046.894,222.254Z" transform="translate(-932.817 -219.866)" fill="#fdfdfe" opacity="0.032"/>
      <path id="Path_4735" data-name="Path 4735" d="M1042.75,222.669c-.761,1.68-.609,4.367.032,7.861a38.51,38.51,0,0,0,1.824,6.153,84.457,84.457,0,0,0,3.657,8.637,211.467,211.467,0,0,0,22.911,36.6c.684.879,1.4,1.736,2.11,2.6,4.2,5.116,8.616,10.144,13.18,14.926a190.442,190.442,0,0,0,18.973,17.522,92.383,92.383,0,0,0,20.06,12.6q.973.424,1.945.807a38.249,38.249,0,0,0,5.141,1.632,29.776,29.776,0,0,0,7.339.794,16.915,16.915,0,0,0,3.273-.009c17.631-2.707,19.78-28.093,10.854-54.822-3.979-14.535-10.6-28.733-18.157-39.345s-16.042-17.638-23.748-17.83c-.345-.563-16.886-.74-33.688-.492-9.8.159-19.443.537-26.026,1.005-1.135.012-2.172.044-3.1.1C1045.687,221.768,1043.243,222.163,1042.75,222.669Z" transform="translate(-932.355 -219.889)" fill="#fafbfe" opacity="0.065"/>
      <path id="Path_4736" data-name="Path 4736" d="M1038.649,223.043c-.8,1.686-.65,4.352-.111,7.815a31.5,31.5,0,0,0,1.694,5.925,74.968,74.968,0,0,0,3.645,8.625A202.409,202.409,0,0,0,1067,281.758c.711.886,1.463,1.741,2.2,2.608,4.383,5.129,8.976,10.174,13.712,14.981A206.629,206.629,0,0,0,1102.516,317a97.62,97.62,0,0,0,20.236,12.67q.978.432,1.955.824a35.645,35.645,0,0,0,5.177,1.651,27.785,27.785,0,0,0,7.379.671,14.836,14.836,0,0,0,3.069.076c17.375-2.819,20.613-27.673,11.185-54.464-3.861-14.73-10.573-28.931-18.336-39.523s-16.582-17.571-24.656-17.859c-.881-.633-17.407-.822-34.1-.565-10.075.176-19.858.625-26.328,1.143-1.045-.018-1.992-.006-2.83.031C1041.657,222.05,1039.2,222.478,1038.649,223.043Z" transform="translate(-931.897 -219.908)" fill="#f8f9fd" opacity="0.097"/>
      <path id="Path_4737" data-name="Path 4737" d="M1034.547,223.412c-.834,1.692-.7,4.34-.254,7.769a25.8,25.8,0,0,0,1.564,5.7,67.538,67.538,0,0,0,3.631,8.613,194.46,194.46,0,0,0,23.347,36.1c.736.893,1.526,1.745,2.3,2.614,4.568,5.143,9.336,10.2,14.244,15.036a224.533,224.533,0,0,0,20.217,17.787A103.3,103.3,0,0,0,1120,329.76q.983.44,1.965.841a33.527,33.527,0,0,0,5.212,1.67,26.142,26.142,0,0,0,7.42.547,13.047,13.047,0,0,0,2.865.159c17.121-2.93,21.445-27.253,11.517-54.1-3.744-14.924-10.543-29.13-18.517-39.7s-17.122-17.505-25.562-17.889c-1.417-.7-17.928-.9-34.512-.638-10.353.194-20.273.714-26.63,1.281q-1.435-.071-2.561-.034C1037.626,222.326,1035.154,222.788,1034.547,223.412Z" transform="translate(-931.438 -219.926)" fill="#f6f7fc" opacity="0.129"/>
      <path id="Path_4738" data-name="Path 4738" d="M1030.443,223.774c-.871,1.7-.753,4.331-.4,7.723.252,2.406.555,2.638,1.435,5.468a61.4,61.4,0,0,0,3.619,8.6,187.385,187.385,0,0,0,23.563,35.842c.762.9,1.588,1.749,2.391,2.621,4.751,5.156,9.7,10.234,14.775,15.09a244.191,244.191,0,0,0,20.84,17.92,109.48,109.48,0,0,0,20.587,12.8q.987.447,1.975.857a31.58,31.58,0,0,0,5.249,1.688,24.7,24.7,0,0,0,7.46.424,11.373,11.373,0,0,0,2.662.243c16.865-3.042,22.277-26.833,11.847-53.747a107.613,107.613,0,0,0-18.7-39.876c-8.182-10.549-17.661-17.439-26.469-17.918-1.953-.772-18.449-.985-34.924-.711-10.631.211-20.688.8-26.932,1.419a22.885,22.885,0,0,0-2.292-.1C1033.594,222.6,1031.108,223.093,1030.443,223.774Z" transform="translate(-930.979 -219.943)" fill="#f3f5fc" opacity="0.161"/>
      <path id="Path_4739" data-name="Path 4739" d="M1026.338,224.132c-.907,1.7-.813,4.323-.541,7.677.2,2.5.432,2.326,1.3,5.24a56.593,56.593,0,0,0,3.607,8.59,181.084,181.084,0,0,0,23.781,35.588c.789.907,1.65,1.753,2.485,2.627,4.935,5.169,10.057,10.264,15.306,15.145a266.112,266.112,0,0,0,21.461,18.052,116.017,116.017,0,0,0,20.763,12.869q.993.455,1.985.874a30.019,30.019,0,0,0,5.285,1.708,23.388,23.388,0,0,0,7.5.3,10.019,10.019,0,0,0,2.459.328c16.61-3.154,23.109-26.413,12.179-53.39a102.3,102.3,0,0,0-18.877-40.053c-8.391-10.528-18.2-17.372-27.376-17.948-2.489-.841-18.97-1.066-35.335-.783-10.91.228-21.1.89-27.234,1.558a16.21,16.21,0,0,0-2.024-.165C1029.561,222.863,1027.061,223.391,1026.338,224.132Z" transform="translate(-930.519 -219.96)" fill="#f1f3fb" opacity="0.194"/>
      <path id="Path_4740" data-name="Path 4740" d="M1022.234,224.493c-.943,1.712-.876,4.315-.684,7.631.15,2.593.31,2.015,1.175,5.012a52.561,52.561,0,0,0,3.594,8.578,175.5,175.5,0,0,0,24,35.334c.817.914,1.712,1.758,2.578,2.633,5.119,5.183,10.417,10.293,15.838,15.2,7.187,6.54,14.638,12.651,22.083,18.184A123.149,123.149,0,0,0,1111.758,330q1,.462,1.994.89a28.658,28.658,0,0,0,5.321,1.727,22.282,22.282,0,0,0,7.54.176,8.79,8.79,0,0,0,2.256.412c16.354-3.265,23.942-25.991,12.509-53.03a97.6,97.6,0,0,0-19.057-40.23c-8.6-10.508-18.74-17.306-28.283-17.978-3.026-.911-19.493-1.18-35.747-.857-11.189.223-21.519.979-27.536,1.7a11.66,11.66,0,0,0-1.756-.23C1025.529,223.131,1023.015,223.694,1022.234,224.493Z" transform="translate(-930.057 -219.975)" fill="#eff1fa" opacity="0.226"/>
      <path id="Path_4741" data-name="Path 4741" d="M1018.133,224.848c-.979,1.717-.946,4.309-.827,7.585.1,2.687.188,1.7,1.045,4.783a49.072,49.072,0,0,0,3.581,8.567,170.416,170.416,0,0,0,24.217,35.08c.844.922,1.776,1.761,2.671,2.639,5.3,5.2,10.777,10.324,16.371,15.256,7.4,6.563,15.062,12.709,22.705,18.316a130.916,130.916,0,0,0,21.115,13q1,.47,2,.907a27.376,27.376,0,0,0,5.357,1.744,21.262,21.262,0,0,0,7.58.053,7.815,7.815,0,0,0,2.052.5c16.1-3.376,24.774-25.571,12.84-52.672a93.425,93.425,0,0,0-19.236-40.407c-8.81-10.487-19.279-17.24-29.189-18.008-3.562-.979-20.014-1.263-36.159-.929-11.468.238-21.935,1.067-27.837,1.833a8.576,8.576,0,0,0-1.487-.3C1021.5,223.394,1018.97,223.99,1018.133,224.848Z" transform="translate(-929.595 -219.991)" fill="#eceffa" opacity="0.258"/>
      <path id="Path_4742" data-name="Path 4742" d="M1014.036,225.2c-1.015,1.724-1.019,4.3-.971,7.539.042,2.783.067,1.39.916,4.555a45.963,45.963,0,0,0,3.569,8.555,165.767,165.767,0,0,0,24.433,34.827c.872.927,1.838,1.765,2.765,2.645,5.487,5.209,11.138,10.353,16.9,15.309,7.616,6.589,15.485,12.768,23.328,18.449a139.427,139.427,0,0,0,21.29,13.069q1.006.476,2.014.923a26.324,26.324,0,0,0,5.393,1.764,20.4,20.4,0,0,0,7.621-.071,7.055,7.055,0,0,0,1.849.58c15.844-3.488,25.605-25.151,13.171-52.314a89.707,89.707,0,0,0-19.416-40.584c-9.02-10.465-19.819-17.173-30.1-18.036-4.1-1.049-20.535-1.347-36.572-1a264.719,264.719,0,0,0-28.139,1.971,6.438,6.438,0,0,0-1.219-.361C1017.473,223.656,1014.931,224.286,1014.036,225.2Z" transform="translate(-929.132 -220.007)" fill="#eaedf9" opacity="0.29"/>
      <path id="Path_4743" data-name="Path 4743" d="M1009.951,225.557c-1.052,1.729-1.1,4.3-1.114,7.492-.016,2.88-.053,1.077.786,4.327a43.342,43.342,0,0,0,3.557,8.544,161.524,161.524,0,0,0,24.651,34.572c.9.934,1.9,1.769,2.859,2.651,5.671,5.224,11.5,10.383,17.434,15.364,7.83,6.613,15.907,12.828,23.949,18.582a148.813,148.813,0,0,0,21.466,13.135q1.011.484,2.025.94a25.346,25.346,0,0,0,5.428,1.783,19.607,19.607,0,0,0,7.661-.194,6.643,6.643,0,0,0,1.646.664c15.589-3.6,26.438-24.731,13.5-51.956a86.362,86.362,0,0,0-19.6-40.761c-9.229-10.445-20.358-17.107-31-18.067-4.634-1.118-21.056-1.43-36.983-1.074a247.435,247.435,0,0,0-28.44,2.109,5.472,5.472,0,0,0-.951-.427C1013.46,223.919,1010.9,224.582,1009.951,225.557Z" transform="translate(-928.666 -220.024)" fill="#e8ebf9" opacity="0.323"/>
      <path id="Path_4744" data-name="Path 4744" d="M1005.888,225.912c-1.088,1.736-1.176,4.3-1.257,7.447-.076,2.976-.173.764.656,4.1a41.1,41.1,0,0,0,3.543,8.532,157.619,157.619,0,0,0,24.869,34.318c.93.94,1.963,1.774,2.952,2.658,5.855,5.236,11.858,10.413,17.966,15.418,8.045,6.637,16.328,12.888,24.57,18.714a159.11,159.11,0,0,0,21.642,13.2q1.015.492,2.034.957a24.428,24.428,0,0,0,5.465,1.8,18.9,18.9,0,0,0,7.7-.318,6.658,6.658,0,0,0,1.442.748c15.334-3.711,27.271-24.311,13.834-51.6a83.321,83.321,0,0,0-19.777-40.937c-9.438-10.424-20.9-17.041-31.911-18.1-5.17-1.189-21.578-1.512-37.4-1.147a232.74,232.74,0,0,0-28.742,2.246c-.331-.255-.552-.413-.682-.492C1009.468,224.182,1006.9,224.878,1005.888,225.912Z" transform="translate(-928.197 -220.04)" fill="#e5e9f8" opacity="0.355"/>
      <path id="Path_4745" data-name="Path 4745" d="M1001.831,226.266c-1.124,1.743-1.26,4.292-1.4,7.4-.139,3.072-.291.45.528,3.87a39,39,0,0,0,3.531,8.52,153.987,153.987,0,0,0,25.087,34.065c.959.946,2.025,1.777,3.045,2.663,6.039,5.25,12.219,10.443,18.5,15.474,8.26,6.661,16.75,12.95,25.193,18.847a170.377,170.377,0,0,0,21.816,13.266q1.021.5,2.044.974a23.625,23.625,0,0,0,5.5,1.82,18.266,18.266,0,0,0,7.741-.441,7.6,7.6,0,0,0,1.239.833c15.079-3.823,28.1-23.891,14.165-51.24a80.574,80.574,0,0,0-19.956-41.115c-9.648-10.4-21.438-16.974-32.818-18.125-5.706-1.257-22.1-1.594-37.807-1.22a219.637,219.637,0,0,0-29.044,2.385,3.145,3.145,0,0,1-.414-.558C1005.482,224.444,1002.9,225.174,1001.831,226.266Z" transform="translate(-927.727 -220.056)" fill="#e3e7f7" opacity="0.387"/>
      <path id="Path_4746" data-name="Path 4746" d="M997.778,226.621c-1.16,1.748-1.346,4.288-1.543,7.354-.2,3.169-.409.137.4,3.641a37.15,37.15,0,0,0,3.519,8.509c5.817,11.008,16.255,25.105,25.3,33.811.988.951,2.088,1.781,3.138,2.67,6.224,5.264,12.579,10.473,19.03,15.529,8.474,6.685,17.171,13.011,25.815,18.979a182.929,182.929,0,0,0,21.993,13.333q1.026.508,2.054.99a22.869,22.869,0,0,0,5.537,1.84,17.716,17.716,0,0,0,7.782-.565,12.2,12.2,0,0,0,1.035.916c14.823-3.934,28.935-23.469,14.5-50.881a78.072,78.072,0,0,0-20.136-41.292c-9.857-10.382-21.978-16.908-33.725-18.155-6.241-1.326-22.62-1.676-38.219-1.292a207.9,207.9,0,0,0-29.346,2.523c-.153-.315-.192-.515-.145-.624C1001.5,224.706,998.9,225.47,997.778,226.621Z" transform="translate(-927.255 -220.072)" fill="#e1e5f7" opacity="0.419"/>
      <path id="Path_4747" data-name="Path 4747" d="M993.727,226.975c-1.2,1.754-1.435,4.283-1.687,7.308-.272,3.265-.527-.176.267,3.413a35.511,35.511,0,0,0,3.507,8.5c5.868,11.011,16.549,25.137,25.521,33.557,1.018.956,2.15,1.785,3.233,2.676,6.407,5.277,12.939,10.5,19.561,15.584,8.689,6.708,17.591,13.073,26.437,19.111a197.44,197.44,0,0,0,22.169,13.4q1.03.514,2.064,1.006a22.266,22.266,0,0,0,5.573,1.858,17.2,17.2,0,0,0,7.821-.689c.393.463.675.812.833,1,14.569-4.046,29.767-23.049,14.827-50.523a75.771,75.771,0,0,0-20.316-41.469c-10.066-10.361-22.517-16.842-34.632-18.185-6.778-1.4-23.141-1.757-38.631-1.365-13.138.333-24.425,1.594-29.648,2.661a.716.716,0,0,1,.124-.689C997.521,224.969,994.907,225.766,993.727,226.975Z" transform="translate(-926.783 -220.089)" fill="#dee3f6" opacity="0.452"/>
      <path id="Path_4748" data-name="Path 4748" d="M989.677,227.33c-1.233,1.761-1.527,4.279-1.83,7.262-.342,3.362-.642-.49.138,3.186a34.009,34.009,0,0,0,3.493,8.485c5.919,11.014,16.849,25.165,25.739,33.3,1.05.961,2.212,1.79,3.326,2.682,6.591,5.29,13.3,10.533,20.093,15.638,8.9,6.733,18.011,13.137,27.059,19.244a213.142,213.142,0,0,0,22.344,13.467q1.035.522,2.075,1.023a21.625,21.625,0,0,0,5.609,1.877,16.741,16.741,0,0,0,7.862-.812,7.346,7.346,0,0,1,.629,1.085c14.313-4.158,30.6-22.629,15.158-50.165a73.672,73.672,0,0,0-20.5-41.646c-10.275-10.34-23.057-16.775-35.539-18.214-7.314-1.465-23.662-1.838-39.042-1.437-13.416.35-24.841,1.681-29.95,2.8a.891.891,0,0,1,.391-.754C993.542,225.23,990.915,226.061,989.677,227.33Z" transform="translate(-926.31 -220.105)" fill="#dce1f5" opacity="0.484"/>
      <path id="Path_4749" data-name="Path 4749" d="M985.629,227.684c-1.269,1.768-1.62,4.274-1.973,7.216-.415,3.456-.758-.805.008,2.956a32.629,32.629,0,0,0,3.481,8.473c5.97,11.018,17.152,25.188,25.956,33.049,1.081.965,2.276,1.794,3.42,2.688,6.775,5.3,13.661,10.562,20.625,15.693,9.118,6.757,18.431,13.2,27.681,19.376a231.16,231.16,0,0,0,22.52,13.532q1.039.53,2.083,1.039a21.019,21.019,0,0,0,5.644,1.9,16.328,16.328,0,0,0,7.9-.935,3.686,3.686,0,0,1,.425,1.169c14.058-4.269,31.432-22.209,15.49-49.806a71.747,71.747,0,0,0-20.676-41.823c-10.484-10.319-23.6-16.708-36.446-18.244-7.851-1.535-24.183-1.919-39.455-1.51-13.694.367-25.255,1.77-30.251,2.937a1.243,1.243,0,0,1,.661-.819C989.565,225.493,986.924,226.357,985.629,227.684Z" transform="translate(-925.837 -220.121)" fill="#dadef5" opacity="0.516"/>
      <path id="Path_4750" data-name="Path 4750" d="M981.581,228.038c-1.305,1.774-1.715,4.269-2.116,7.17-.492,3.551-.872-1.119-.122,2.728a31.385,31.385,0,0,0,3.469,8.462c6.022,11.021,17.46,25.207,26.174,32.795,1.112.969,2.338,1.8,3.513,2.695,6.959,5.317,14.02,10.592,21.157,15.748,9.333,6.782,18.85,13.266,28.3,19.509a252.132,252.132,0,0,0,22.7,13.6q1.043.536,2.093,1.056a20.528,20.528,0,0,0,5.681,1.914c2.937.475,5.336-.2,7.943-1.059a2.654,2.654,0,0,1,.222,1.253c13.8-4.381,32.264-21.789,15.821-49.449a69.958,69.958,0,0,0-20.857-42,66.421,66.421,0,0,0-37.352-18.274c-8.386-1.6-24.7-2-39.867-1.583-13.973.384-25.671,1.858-30.553,3.074a1.731,1.731,0,0,1,.929-.884C985.589,225.755,982.933,226.653,981.581,228.038Z" transform="translate(-925.364 -220.137)" fill="#d8dcf4" opacity="0.548"/>
      <path id="Path_4751" data-name="Path 4751" d="M977.534,228.393c-1.341,1.78-1.812,4.263-2.26,7.124-.57,3.646-.986-1.433-.251,2.5a30.238,30.238,0,0,0,3.455,8.45c6.072,11.025,17.771,25.222,26.392,32.541,1.144.971,2.4,1.8,3.606,2.7,7.143,5.33,14.38,10.622,21.688,15.8,9.547,6.805,19.269,13.331,28.925,19.64,7.648,5,15.258,9.689,22.871,13.665q1.049.546,2.1,1.074a20.057,20.057,0,0,0,5.717,1.933c2.965.467,5.362-.271,7.983-1.182a2.316,2.316,0,0,1,.019,1.337c13.548-4.492,33.1-21.368,16.151-49.09a68.307,68.307,0,0,0-21.035-42.176,69.231,69.231,0,0,0-38.26-18.3c-8.923-1.673-25.226-2.079-40.279-1.656-14.251.4-26.086,1.946-30.855,3.212a2.343,2.343,0,0,1,1.2-.949C981.613,226.017,978.944,226.949,977.534,228.393Z" transform="translate(-924.89 -220.154)" fill="#d5daf3" opacity="0.581"/>
      <path id="Path_4752" data-name="Path 4752" d="M973.487,228.737c-1.378,1.786-1.911,4.257-2.4,7.078-.652,3.74-1.1-1.747-.381,2.271a29.188,29.188,0,0,0,3.444,8.439c6.123,11.028,18.085,25.233,26.609,32.288,1.177.974,2.462,1.806,3.7,2.707,7.327,5.344,14.741,10.652,22.22,15.857,9.762,6.83,19.687,13.4,29.547,19.774,7.706,4.983,15.375,9.688,23.047,13.731q1.054.552,2.114,1.09a19.58,19.58,0,0,0,5.752,1.952c2.994.46,5.39-.339,8.023-1.305a2.273,2.273,0,0,1-.184,1.422c13.292-4.6,33.928-20.948,16.482-48.733a66.774,66.774,0,0,0-21.215-42.353,72.148,72.148,0,0,0-39.167-18.333c-9.458-1.743-25.748-2.159-40.691-1.728-14.529.419-26.5,2.034-31.156,3.35a3.046,3.046,0,0,1,1.465-1.015C977.638,226.269,974.954,227.235,973.487,228.737Z" transform="translate(-924.416 -220.169)" fill="#d3d8f3" opacity="0.613"/>
      <path id="Path_4753" data-name="Path 4753" d="M969.44,229.074c-1.414,1.793-2.011,4.25-2.546,7.032-.737,3.831-1.21-2.062-.511,2.042a28.2,28.2,0,0,0,3.43,8.427c6.175,11.032,18.4,25.239,26.827,32.033,1.21.976,2.525,1.81,3.793,2.713q11.266,8.036,22.752,15.912c9.977,6.854,20.1,13.463,30.169,19.906,7.763,4.969,15.49,9.688,23.223,13.8q1.058.56,2.123,1.107a19.194,19.194,0,0,0,5.789,1.971c3.023.451,5.417-.408,8.063-1.43a2.4,2.4,0,0,1-.387,1.505c13.037-4.715,34.76-20.527,16.813-48.373a65.353,65.353,0,0,0-21.4-42.531,75.16,75.16,0,0,0-40.073-18.362c-9.995-1.812-26.269-2.239-41.1-1.8-14.807.438-26.916,2.123-31.459,3.488a3.86,3.86,0,0,1,1.735-1.08C973.663,226.514,970.964,227.513,969.44,229.074Z" transform="translate(-923.942 -220.183)" fill="#d1d6f2" opacity="0.645"/>
      <path id="Path_4754" data-name="Path 4754" d="M965.394,229.412c-1.451,1.8-2.113,4.242-2.69,6.986-.826,3.923-1.32-2.377-.64,1.815a27.26,27.26,0,0,0,3.418,8.415c6.225,11.035,18.72,25.242,27.044,31.78,1.243.977,2.588,1.814,3.887,2.719q11.542,8.056,23.284,15.966c10.191,6.878,20.521,13.531,30.791,20.039,7.821,4.956,15.607,9.687,23.4,13.863q1.064.567,2.133,1.124a18.845,18.845,0,0,0,5.825,1.989c3.05.444,5.443-.477,8.1-1.552a2.649,2.649,0,0,1-.591,1.59c12.782-4.828,35.593-20.107,17.144-48.016a64.034,64.034,0,0,0-21.575-42.708,78.3,78.3,0,0,0-40.981-18.392c-10.53-1.881-26.789-2.318-41.515-1.873-15.086.455-27.331,2.21-31.76,3.626a4.742,4.742,0,0,1,2-1.147C969.687,226.76,966.975,227.792,965.394,229.412Z" transform="translate(-923.467 -220.198)" fill="#ced4f1" opacity="0.677"/>
      <path id="Path_4755" data-name="Path 4755" d="M961.348,229.744c-1.486,1.8-2.215,4.234-2.833,6.94-.916,4.013-1.43-2.692-.77,1.586a26.4,26.4,0,0,0,3.405,8.4c6.276,11.038,19.04,25.24,27.261,31.525,1.277.977,2.65,1.818,3.981,2.726q11.817,8.076,23.815,16.022c10.407,6.9,20.938,13.6,31.413,20.171,7.878,4.943,15.722,9.687,23.574,13.93q1.068.575,2.143,1.14a18.474,18.474,0,0,0,5.861,2.009c3.08.436,5.471-.545,8.144-1.676a2.975,2.975,0,0,1-.794,1.673c12.526-4.939,36.424-19.687,17.476-47.657a62.81,62.81,0,0,0-21.755-42.885c-11.74-10.194-26.835-16.31-41.888-18.422-11.066-1.951-27.31-2.37-41.926-1.946-15.363.5-27.746,2.3-32.063,3.764a5.7,5.7,0,0,1,2.271-1.212C965.712,227,962.986,228.065,961.348,229.744Z" transform="translate(-922.993 -220.213)" fill="#ccd2f1" opacity="0.71"/>
      <path id="Path_4756" data-name="Path 4756" d="M957.3,230.08a16.76,16.76,0,0,0-2.976,6.894c-1.011,4.1-1.538-3.007-.9,1.358a25.6,25.6,0,0,0,3.393,8.392C963.145,257.766,976.181,271.96,984.3,278c1.311.975,2.712,1.822,4.073,2.731q12.094,8.1,24.347,16.077c10.621,6.926,21.355,13.668,32.035,20.3,7.935,4.93,15.839,9.686,23.75,14q1.073.582,2.153,1.156a18.119,18.119,0,0,0,5.9,2.027c3.108.428,5.5-.614,8.184-1.8a3.374,3.374,0,0,1-1,1.758c12.272-5.05,37.257-19.267,17.807-47.3a61.653,61.653,0,0,0-21.935-43.062c-11.949-10.173-27.375-16.244-42.795-18.451-11.6-2.02-27.832-2.452-42.338-2.018-15.643.521-28.163,2.386-32.364,3.9a6.713,6.713,0,0,1,2.54-1.277C961.738,227.244,959,228.343,957.3,230.08Z" transform="translate(-922.518 -220.227)" fill="#cad0f0" opacity="0.742"/>
      <path id="Path_4757" data-name="Path 4757" d="M953.254,230.416a16.993,16.993,0,0,0-3.119,6.848c-1.108,4.189-1.646-3.322-1.029,1.13a24.848,24.848,0,0,0,3.38,8.38c6.378,11.045,19.688,25.228,27.7,31.018,1.348.974,2.776,1.826,4.168,2.738q12.37,8.116,24.879,16.131c10.835,6.95,21.771,13.736,32.657,20.435,7.992,4.919,15.955,9.687,23.926,14.064q1.077.59,2.163,1.172a17.825,17.825,0,0,0,5.933,2.046c3.137.42,5.524-.682,8.224-1.923a3.845,3.845,0,0,1-1.2,1.842c12.016-5.162,38.089-18.847,18.138-46.941a60.576,60.576,0,0,0-22.115-43.239c-12.158-10.152-27.914-16.177-43.7-18.48-12.139-2.09-28.353-2.533-42.751-2.091-15.92.539-28.576,2.474-32.666,4.04a7.827,7.827,0,0,1,2.808-1.342C957.762,227.488,955.007,228.621,953.254,230.416Z" transform="translate(-922.043 -220.241)" fill="#c7cef0" opacity="0.774"/>
      <path id="Path_4758" data-name="Path 4758" d="M949.208,230.752a17.263,17.263,0,0,0-3.263,6.8c-1.209,4.274-1.753-3.636-1.159.9a24.162,24.162,0,0,0,3.368,8.368c6.429,11.049,20.013,25.215,27.914,30.765,1.382.971,2.838,1.83,4.261,2.743q12.645,8.137,25.41,16.186c11.051,6.975,22.187,13.807,33.28,20.568,8.048,4.906,16.07,9.686,24.1,14.129q1.082.6,2.173,1.189a17.542,17.542,0,0,0,5.968,2.066c3.166.412,5.552-.752,8.265-2.047a4.375,4.375,0,0,1-1.4,1.926c11.761-5.273,38.922-18.426,18.469-46.583a59.566,59.566,0,0,0-22.294-43.416c-12.367-10.131-28.453-16.111-44.609-18.51-12.675-2.159-28.874-2.615-43.162-2.164-16.2.556-28.992,2.562-32.967,4.178a8.935,8.935,0,0,1,3.076-1.407C953.787,227.732,951.019,228.9,949.208,230.752Z" transform="translate(-921.568 -220.255)" fill="#c5ccef" opacity="0.806"/>
      <path id="Path_4759" data-name="Path 4759" d="M945.161,231.089a17.568,17.568,0,0,0-3.406,6.756c-1.313,4.358-1.857-3.952-1.288.673a23.454,23.454,0,0,0,3.356,8.357c6.48,11.052,20.338,25.2,28.131,30.51,1.419.968,2.9,1.834,4.354,2.751q12.922,8.157,25.943,16.24c11.264,7,22.6,13.878,33.9,20.7,8.106,4.895,16.187,9.685,24.277,14.2q1.088.6,2.183,1.205a17.25,17.25,0,0,0,6,2.084c3.195.4,5.58-.82,8.305-2.171a4.957,4.957,0,0,1-1.608,2.01c11.506-5.385,39.754-18.005,18.8-46.224-1.162-19.2-9.9-33.483-22.475-43.593s-28.993-16.045-45.516-18.54c-13.21-2.228-29.395-2.7-43.574-2.236-16.477.573-29.407,2.65-33.27,4.315a10.1,10.1,0,0,1,3.346-1.472C949.812,227.976,947.029,229.175,945.161,231.089Z" transform="translate(-921.093 -220.27)" fill="#c3caee" opacity="0.839"/>
      <path id="Path_4760" data-name="Path 4760" d="M941.115,231.424a17.907,17.907,0,0,0-3.549,6.709c-1.42,4.44-1.962-4.266-1.418.445a22.839,22.839,0,0,0,3.343,8.345c6.53,11.055,20.665,25.179,28.348,30.257,1.456.962,2.962,1.838,4.448,2.756q13.2,8.177,26.474,16.3c11.479,7.023,23.018,13.949,34.523,20.832,8.162,4.884,16.3,9.686,24.453,14.262q1.091.612,2.192,1.222a17,17,0,0,0,6.041,2.1c3.222.4,5.606-.889,8.345-2.294a5.59,5.59,0,0,1-1.811,2.095c11.251-5.5,40.586-17.585,19.132-45.866-1.045-19.391-9.869-33.68-22.655-43.77s-29.532-15.978-46.422-18.568c-13.747-2.3-29.916-2.777-43.986-2.309-16.755.59-29.823,2.737-33.571,4.453a11.313,11.313,0,0,1,3.614-1.538C945.837,228.219,943.04,229.452,941.115,231.424Z" transform="translate(-920.618 -220.284)" fill="#c0c8ee" opacity="0.871"/>
      <path id="Path_4761" data-name="Path 4761" d="M937.068,231.759a18.282,18.282,0,0,0-3.693,6.663c-1.53,4.52-2.065-4.581-1.548.216a22.231,22.231,0,0,0,3.331,8.334c6.582,11.059,20.992,25.156,28.566,30,1.493.955,3.025,1.842,4.541,2.762q13.473,8.2,27.005,16.35,17.542,10.572,35.145,20.966c8.219,4.873,16.419,9.685,24.629,14.328q1.1.62,2.2,1.239a16.782,16.782,0,0,0,6.077,2.122c3.251.389,5.633-.957,8.385-2.418a6.284,6.284,0,0,1-2.015,2.179c11-5.608,41.418-17.165,19.463-45.508-.927-19.585-9.84-33.878-22.834-43.946s-30.073-15.912-47.33-18.6c-14.283-2.367-30.437-2.859-44.4-2.382-17.033.608-30.237,2.826-33.873,4.591a12.563,12.563,0,0,1,3.882-1.6C941.861,228.462,939.05,229.729,937.068,231.759Z" transform="translate(-920.143 -220.298)" fill="#bec6ed" opacity="0.903"/>
      <path id="Path_4762" data-name="Path 4762" d="M933.021,232.094a18.7,18.7,0,0,0-3.836,6.618c-1.643,4.6-2.167-4.9-1.678-.012a21.686,21.686,0,0,0,3.318,8.322c6.633,11.062,21.318,25.128,28.783,29.749,1.532.947,3.088,1.846,4.635,2.768q13.75,8.217,27.538,16.4,17.862,10.607,35.767,21.1,12.4,7.319,24.8,14.394,1.1.627,2.212,1.256a16.534,16.534,0,0,0,6.113,2.139c3.279.382,5.66-1.026,8.425-2.541a7.03,7.03,0,0,1-2.218,2.263c10.74-5.72,42.25-16.745,19.793-45.149-.81-19.78-9.81-34.077-23.015-44.124s-30.612-15.845-48.236-18.629a234.85,234.85,0,0,0-44.811-2.454c-17.311.625-30.653,2.914-34.175,4.73a13.843,13.843,0,0,1,4.15-1.67C937.885,228.7,935.06,230.005,933.021,232.094Z" transform="translate(-919.668 -220.312)" fill="#bcc4ec" opacity="0.935"/>
      <path id="Path_4763" data-name="Path 4763" d="M929,232.415a19.155,19.155,0,0,0-3.978,6.571c-1.76,4.672-2.268-5.21-1.808-.241.22,2.366,1.442,5.225,3.306,8.311,6.683,11.066,21.644,25.1,29,29.494,1.569.939,3.149,1.851,4.728,2.776q14.024,8.237,28.069,16.459,18.185,10.644,36.389,21.23,12.489,7.294,24.981,14.461,1.1.634,2.222,1.272a16.31,16.31,0,0,0,6.149,2.159c3.308.373,5.687-1.094,8.465-2.664a7.8,7.8,0,0,1-2.421,2.347c10.485-5.831,43.082-16.324,20.125-44.791-.692-19.975-9.781-34.275-23.194-44.3s-31.151-15.779-49.144-18.658a235.794,235.794,0,0,0-45.221-2.527c-17.591.642-31.068,3-34.477,4.868a15.163,15.163,0,0,1,4.419-1.735C933.933,228.934,931.094,230.268,929,232.415Z" transform="translate(-919.195 -220.324)" fill="#b9c2ec" opacity="0.968"/>
      <path id="Path_4764" data-name="Path 4764" d="M1081.719,290.224c-.575-20.169-9.752-34.473-23.374-44.478s-31.692-15.712-50.051-18.687c-36.72-5.95-74.6-.971-80.412,2.4a16.482,16.482,0,0,1,4.687-1.8c-2.638,1.528-5.492,2.9-7.647,5.1a19.647,19.647,0,0,0-4.121,6.525c-1.881,4.745-2.371-5.524-1.937-.469.914,10.807,23.244,32.193,32.511,37.54q2.414,1.389,4.822,2.781,14.3,8.257,28.6,16.514,18.508,10.68,37.011,21.363,12.578,7.268,25.156,14.527,1.11.642,2.232,1.289a16.12,16.12,0,0,0,6.185,2.178c3.337.366,5.715-1.164,8.505-2.788a8.632,8.632,0,0,1-2.624,2.431C1071.494,328.714,1105.178,318.753,1081.719,290.224Z" transform="translate(-918.717 -220.34)" fill="#b7c0eb"/>
    </g>
    <g id="Group_3562" data-name="Group 3562" transform="translate(0 0.126)" style="mix-blend-mode: multiply;isolation: isolate">
      <path id="Path_4765" data-name="Path 4765" d="M1058.29,326.481c.013-.02.032-.037.044-.056-.012.019-.026.033-.036.05ZM1089.45,299.9c-.006-.266-.019-.534-.038-.8,0-.041-.005-.085-.005-.125s-.006-.082-.013-.122c-.012-.186-.023-.374-.043-.559-.025-.277-.056-.549-.094-.825,0-.068-.018-.137-.028-.2a1.925,1.925,0,0,1-.024-.194c-.022-.143-.039-.288-.066-.436-.04-.286-.093-.575-.146-.863-.02-.092-.037-.18-.057-.273-.011-.064-.024-.129-.042-.193-.027-.138-.051-.27-.083-.407-.061-.3-.134-.6-.211-.9-.019-.094-.043-.189-.065-.278a2.139,2.139,0,0,1-.063-.23c-.037-.131-.068-.263-.1-.4-.086-.3-.174-.6-.269-.9-.024-.1-.06-.192-.084-.283-.027-.075-.051-.143-.07-.21-.044-.133-.087-.261-.129-.392-.093-.294-.2-.582-.3-.874-.035-.109-.081-.213-.125-.326a1.706,1.706,0,0,0-.075-.2c-.036-.108-.071-.21-.117-.322-.1-.273-.215-.547-.333-.825-.063-.147-.124-.3-.192-.445-.024-.059-.052-.115-.076-.173a2.178,2.178,0,0,0-.085-.2c-.125-.278-.247-.561-.379-.838-.091-.19-.18-.374-.271-.56-.026-.052-.055-.109-.081-.162s-.048-.1-.072-.153c-.164-.334-.337-.663-.511-1-.056-.1-.118-.2-.171-.3-.1-.2-.217-.395-.33-.589-.1-.181-.2-.368-.3-.548-.059-.1-.128-.2-.19-.3-.315-.532-.642-1.054-.985-1.574-.075-.11-.135-.23-.212-.339-.029-.042-.06-.081-.093-.125-.126-.2-.27-.391-.411-.586-.175-.254-.348-.51-.535-.762l-.186-.244c-.069-.089-.135-.179-.2-.269-.111-.145-.217-.291-.335-.434-.214-.274-.44-.551-.663-.819-.025-.034-.049-.06-.072-.09a.689.689,0,0,1-.08-.1c-.164-.192-.316-.378-.483-.561-.218-.244-.434-.489-.657-.728-.019-.024-.044-.046-.062-.071s-.049-.053-.073-.072c-.181-.194-.359-.382-.547-.568-.229-.241-.469-.479-.711-.707a.108.108,0,0,0-.017-.018c-.02-.017-.026-.024-.036-.034-.225-.215-.447-.424-.674-.628s-.464-.41-.7-.611c-.015-.233-.038-.469-.057-.708-.011-.125-.031-.253-.044-.383-.02-.151-.036-.306-.056-.459-.008-.092-.018-.184-.032-.278-.017-.2-.053-.391-.08-.586-.016-.132-.037-.261-.054-.393-.009-.059-.018-.119-.024-.177-.053-.314-.106-.625-.162-.941-.012-.056-.016-.107-.031-.164a.351.351,0,0,1-.012-.058c-.075-.4-.156-.805-.242-1.205-.006-.015-.006-.026-.012-.043-.025-.109-.051-.217-.074-.322-.062-.283-.125-.564-.2-.847-.012-.046-.023-.1-.036-.147-.038-.146-.082-.3-.118-.448-.056-.21-.105-.423-.165-.635-.021-.078-.045-.154-.069-.23-.044-.163-.1-.326-.142-.487s-.1-.337-.149-.508c-.032-.113-.069-.222-.106-.332-.052-.162-.106-.318-.157-.479-.042-.131-.077-.263-.121-.4s-.1-.3-.161-.445-.107-.316-.163-.473c-.028-.088-.061-.176-.091-.264-.075-.2-.156-.41-.232-.615-.046-.134-.1-.262-.147-.4l-.056-.137c-.149-.376-.477-.891-.63-1.268s-.317-.751-.477-1.122c-.025-.049-.05-.1-.073-.149-.052-.112-.1-.224-.15-.334-.1-.218-.2-.451-.3-.672-.045-.085-.087-.168-.124-.252-.074-.154-.151-.307-.23-.461s-.149-.315-.221-.472c-.052-.092-.1-.183-.144-.276-.127-.252-.26-.5-.382-.749-.084-.144-.15-.286-.225-.43-.028-.053-.069-.109-.1-.166-.327-.615-.674-1.225-1.027-1.831-.025-.053-.056-.1-.081-.146-.067-.123-.149-.237-.215-.357-.181-.29-.181-.449-.361-.742-.122-.189-.239-.378-.359-.562-.183-.286-.368-.571-.556-.851-.08-.12-.159-.246-.241-.367-.03-.046-.061-.092-.1-.139q-.577-.846-1.175-1.665c-.033-.044-.066-.091-.094-.137-.093-.125-.191-.243-.286-.366-.166-.226-.34-.449-.512-.678-.062-.076-.118-.157-.181-.23-.1-.125-.2-.244-.3-.366l-.428-.533c-.069-.08-.136-.167-.206-.246-.1-.127-.212-.251-.315-.371-.132-.157-.261-.31-.391-.462-.067-.076-.129-.15-.19-.224-.12-.129-.235-.256-.348-.383-.142-.159-.28-.315-.42-.464-.053-.061-.1-.119-.157-.176-.123-.13-.247-.259-.369-.392-.145-.145-.286-.3-.428-.447-.053-.052-.1-.108-.155-.159-.132-.132-.259-.257-.391-.383-.161-.164-.32-.32-.481-.476a1.7,1.7,0,0,0-.126-.124c-.123-.122-.253-.237-.381-.355-.164-.154-.329-.316-.5-.467-.049-.041-.091-.088-.141-.132-.138-.123-.28-.239-.415-.361-.167-.145-.329-.286-.489-.427-.05-.036-.086-.08-.134-.117-.138-.117-.285-.23-.428-.347-.163-.136-.322-.269-.491-.4a1.081,1.081,0,0,0-.1-.085c-.165-.132-.334-.258-.5-.385-.142-.108-.278-.217-.427-.322-.026-.021-.054-.046-.086-.07v0l-.005,0h.005c-.2-.147-.4-.284-.6-.427-.125-.086-.249-.179-.375-.26a.049.049,0,0,0-.017-.019c-.322-.22-.651-.432-.971-.641a.175.175,0,0,1-.027-.017l-.344-.21c-.2-.125-.393-.247-.6-.366-.076-.042-.149-.084-.222-.129-.246-.142-.5-.284-.749-.418-.286-.159-.578-.306-.867-.449l-.073-.036-.005-.007c-.322-.158-.639-.305-.947-.444-.188-.084-.375-.159-.552-.238-.074-.031-.149-.061-.222-.09-.052-.02-.1-.049-.162-.071-.31-.125-.618-.242-.927-.349-.12-.042-.229-.072-.341-.112-.087-.026-.175-.056-.253-.082-.12-.038-.234-.078-.344-.111-.309-.092-.625-.18-.932-.26-.076-.017-.149-.036-.218-.053-.134-.6-.278-1.2-.425-1.8-.021-.07-.036-.141-.058-.209-.085-.35-.178-.7-.27-1.045-.081-.313-.161-.63-.247-.938-.02-.061-.039-.12-.058-.18-.1-.362-.2-.713-.308-1.072-.1-.31-.174-.625-.274-.938-.015-.061-.042-.125-.06-.186-.091-.3-.193-.6-.286-.9-.118-.354-.222-.708-.34-1.055-.025-.071-.051-.143-.076-.213-.1-.283-.2-.566-.3-.844-.116-.351-.236-.7-.365-1.054-.03-.079-.064-.155-.089-.235-.1-.269-.2-.536-.3-.806-.127-.327-.244-.658-.374-.986-.038-.1-.08-.193-.115-.293-.113-.288-.238-.579-.349-.866s-.23-.562-.342-.843c-.047-.118-.106-.236-.147-.351-.126-.292-.253-.58-.379-.873-.1-.246-.212-.5-.32-.744-.065-.146-.131-.29-.2-.437-.129-.3-.27-.609-.414-.912-.108-.23-.2-.459-.309-.682-.074-.158-.149-.314-.222-.468-.163-.336-.323-.672-.49-1.006-.1-.2-.195-.4-.286-.6-.061-.119-.132-.238-.186-.358q-.418-.831-.855-1.654c-.087-.164-.165-.337-.258-.5-.027-.044-.05-.091-.077-.136q-.846-1.587-1.751-3.132c-.053-.1-.109-.21-.174-.31-.068-.118-.134-.23-.2-.34-.435-.728-.866-1.447-1.314-2.161-.061-.1-.115-.2-.178-.291-.507-.81-1.035-1.608-1.56-2.4-.049-.08-.1-.154-.149-.228s-.115-.163-.171-.253c-.753-1.1-1.511-2.185-2.294-3.249-.036-.044-.072-.1-.1-.145-.109-.151-.227-.294-.338-.446-.392-.518-.775-1.033-1.171-1.536l-.278-.363c-.093-.116-.185-.23-.278-.345-.336-.415-.662-.829-1-1.235-.126-.151-.248-.312-.373-.462-.069-.08-.137-.156-.2-.232-.327-.39-.656-.769-.979-1.148-.149-.167-.292-.342-.432-.507-.049-.051-.093-.1-.138-.149-.367-.417-.74-.825-1.114-1.229-.135-.149-.264-.3-.4-.45-.024-.027-.049-.05-.073-.075-.53-.576-1.072-1.142-1.614-1.7a.07.07,0,0,1-.027-.029c-.078-.079-.161-.152-.241-.234-.469-.474-1.114-1.081-1.592-1.539-.04-.039-.085-.082-.12-.119-.157-.149-.317-.291-.473-.439-.383-.362-.773-.725-1.156-1.074-.076-.069-.141-.137-.216-.2-.142-.127-.285-.25-.427-.375-.371-.332-.744-.654-1.122-.974-.1-.088-.2-.182-.309-.271-.124-.1-.076-.067-.19-.17-.36-.294-.713-.586-1.072-.87-.138-.111-.273-.23-.414-.338-.1-.08-.2-.155-.311-.238-.338-.263-.678-.52-1.02-.777-.166-.125-.327-.255-.495-.378-.085-.061-.174-.12-.258-.185-.3-.217-.6-.431-.906-.644-.206-.142-.4-.292-.6-.428-.082-.056-.163-.1-.238-.152-.279-.192-.562-.372-.842-.555-.22-.149-.444-.306-.672-.446-.068-.046-.143-.087-.21-.132-.269-.168-.527-.326-.8-.486-.235-.141-.47-.294-.7-.431-.13-.076-.268-.157-.4-.23-.434-.248-.863-.49-1.291-.721-.16-.087-.32-.165-.48-.253-.225-.114-.438-.23-.656-.34-.179-.086-.352-.186-.533-.272-.259-.131-.525-.248-.793-.375-.2-.094-.407-.195-.611-.286-.087-.036-.167-.081-.254-.117-.477-.219-.955-.416-1.429-.61-.068-.028-.137-.06-.2-.085-.012,0-.02-.012-.03-.012-.557-.222-1.117-.432-1.667-.629-.056-.022-.117-.033-.173-.055-.2-.073-.4-.132-.615-.2-.3-.1-.6-.2-.9-.3-.112-.036-.229-.059-.346-.1-.25-.074-.5-.137-.744-.2-.209-.059-.419-.124-.626-.178-.165-.039-.334-.071-.495-.108-.27-.063-.538-.124-.8-.181-.157-.031-.31-.074-.465-.1-.19-.043-.384-.065-.573-.1-.293-.054-.579-.1-.857-.143-.129-.018-.259-.046-.383-.061-.206-.029-.4-.041-.6-.061-.317-.038-.633-.073-.942-.1-.117-.01-.236-.027-.346-.034-.181-.013-.351-.01-.525-.02-.368-.018-.728-.033-1.079-.036-.13,0-.261-.017-.391-.014-.31,0-.626.011-.937.025a1.03,1.03,0,0,0-.116,0c-.372.015-.742.036-1.114.071-.138.012-.279.034-.415.049s-.286.031-.434.049c-.481.063-.967.133-1.44.227-.036.005-.07.012-.1.02h-.009c-.531.1-1.058.23-1.571.374-.167.046-.327.1-.495.154-.282.087-.569.166-.848.265-.056.02-.113.044-.168.066-.383.135-.761.3-1.14.459-.174.077-.351.141-.526.222-.544.254-1.076.526-1.591.827-1.491.863-2.97,1.727-4.458,2.588-.077-.041-.165-.085-.245-.128-.147-.077-.3-.138-.452-.211-.179-.086-.366-.176-.552-.26-.117-.056-.235-.117-.358-.172-.2-.091-.409-.174-.619-.262-.173-.074-.351-.152-.526-.224-.067-.028-.142-.061-.211-.085-.292-.117-.583-.223-.871-.331-.133-.046-.254-.1-.384-.146a.3.3,0,0,1-.08-.032h0c-.46-.16-.918-.308-1.362-.444a.039.039,0,0,1-.021,0c-.071-.022-.147-.037-.222-.062-.369-.107-.743-.212-1.107-.3-.038-.01-.077-.017-.1-.025-.192-.048-.383-.085-.571-.125-.245-.056-.493-.117-.74-.167-.044-.009-.1-.012-.141-.022-.219-.042-.429-.071-.647-.108s-.42-.074-.63-.1c-.049-.005-.094-.008-.143-.015-.286-.038-.558-.061-.836-.084-.173-.019-.344-.044-.513-.052a.839.839,0,0,0-.106-.006c-.464-.028-.921-.044-1.374-.044-.039,0-.068,0-.106,0h-.006c-.524,0-1.034.031-1.539.072a1.206,1.206,0,0,1-.139.005c-.333.036-.662.072-.982.119l-.1.017c-.265.044-.536.084-.8.137-.069.011-.133.034-.2.051-.184.036-.371.086-.557.128-.217.056-.434.109-.643.168-.186.056-.379.117-.562.18-.125.037-.251.071-.372.118a1.29,1.29,0,0,0-.194.073c-.3.109-.582.23-.873.354l-.415.178c-.407.2-.816.4-1.205.632-14.023,8.149-14.435,8.753-28.454,16.9.084-.053.183-.1.278-.147-6.142,3.407-9.945,10.865-9.972,21.533-.056,21.09,14.822,46.862,33.176,57.461l97.851,56.488c4.742,2.736,9.037,2.963,12.126,1.121-.029.014-.05.036-.08.053,14.024-8.15,14.434-8.749,28.46-16.9a7.007,7.007,0,0,0,.736-.5,2.242,2.242,0,0,0,.181-.133,8.1,8.1,0,0,0,.682-.584c.019-.018.031-.036.048-.054a8.371,8.371,0,0,0,.578-.635c.047-.059.1-.115.141-.175.189-.242.379-.5.55-.763a.115.115,0,0,0,.021-.03.22.22,0,0,0,.036-.065,9.964,9.964,0,0,0,.571-1.033.26.26,0,0,0,.029-.059.119.119,0,0,0,.013-.022c.131-.283.255-.567.366-.859a.263.263,0,0,1,.031-.078c.024-.07.041-.137.068-.206.061-.18.122-.358.179-.544a1.3,1.3,0,0,1,.048-.143c.021-.061.03-.127.053-.2.042-.158.084-.319.121-.483a1.313,1.313,0,0,0,.048-.181c.013-.069.025-.137.043-.2.026-.133.06-.274.084-.408.011-.071.028-.143.043-.215s.024-.168.038-.253c.015-.121.035-.245.053-.369.006-.059.018-.122.026-.184.012-.1.024-.2.033-.306.017-.12.029-.246.036-.374,0-.044.009-.088.016-.13.013-.142.019-.288.024-.435.009-.1.014-.207.022-.315,0-.02,0-.031,0-.048.011-.267.02-.54.02-.816v-.047C1089.464,300.392,1089.455,300.144,1089.45,299.9ZM913.606,215.94c-.009-.2-.021-.414-.03-.625C913.585,215.526,913.6,215.734,913.606,215.94Zm-.016-4.147v.016c.007-.2.024-.4.036-.6v.024C913.615,211.419,913.6,211.6,913.59,211.793Zm.092,5.37c.021.218.03.437.053.655v0c-.022-.229-.041-.449-.053-.676Zm.021-7.021c.024-.242.047-.478.073-.715-.026.219-.049.435-.068.662C913.707,210.1,913.7,210.122,913.7,210.142Zm.227,9.525h0c-.024-.181-.044-.365-.061-.551C913.886,219.3,913.905,219.486,913.929,219.666Zm-.044-11.19c.031-.254.076-.5.112-.753-.036.227-.068.455-.1.689C913.893,208.433,913.886,208.455,913.886,208.476Zm.254-1.6c.051-.276.1-.548.161-.823-.049.251-.1.5-.147.752A.351.351,0,0,1,914.14,206.876Zm.1,14.969c0,.012,0,.019.008.024-.024-.125-.05-.249-.069-.378C914.2,221.608,914.228,221.728,914.244,221.845Zm.225-16.522c.077-.336.166-.668.259-.994-.085.3-.168.608-.24.916A.433.433,0,0,0,914.469,205.323Zm.447,19.922c.052.252.109.506.169.753-.06-.247-.117-.5-.169-.753Zm-.268-1.215c-.043-.225-.093-.449-.135-.677C914.555,223.581,914.606,223.8,914.648,224.03Zm.244-20.3c.133-.449.283-.884.436-1.316-.012.048-.028.094-.044.139-.131.359-.251.727-.364,1.1C914.908,203.682,914.9,203.71,914.892,203.734Zm.684,24.183v.009c-.067-.241-.131-.488-.191-.733Q915.475,227.557,915.576,227.917Zm-.15-25.789c.22-.576.46-1.135.713-1.672-.24.513-.464,1.041-.674,1.59A.547.547,0,0,1,915.426,202.127Zm.516,27.083c.061.21.116.417.185.624v.012c-.069-.224-.13-.451-.2-.676A.19.19,0,0,0,915.942,229.21Zm.507-29.388c.088-.18.181-.36.273-.534-.031.068-.07.131-.1.2C916.562,199.6,916.506,199.71,916.449,199.822Zm1.916,36.278c-.09-.2-.173-.413-.254-.623C918.191,235.688,918.275,235.9,918.365,236.1Zm-.778-1.975c-.066-.171-.127-.342-.2-.512C917.459,233.784,917.521,233.955,917.586,234.126Zm-.747-2.084c-.039-.117-.083-.231-.124-.347C916.757,231.81,916.8,231.924,916.839,232.042Zm.223-33.345c.111-.18.216-.371.327-.552C917.279,198.326,917.167,198.517,917.063,198.7Zm.707-1.112c.133-.2.271-.4.413-.593a.12.12,0,0,1-.013.017C918.035,197.2,917.9,197.388,917.77,197.585Zm1.376,40.384h0c-.077-.179-.15-.367-.235-.554C919,237.6,919.069,237.786,919.146,237.969Zm-.586-41.459c.162-.2.323-.4.48-.588-.02.031-.052.066-.077.1C918.827,196.18,918.7,196.342,918.56,196.51Zm8.742-6.421a.56.56,0,0,0,.06-.014l-.008,0A.259.259,0,0,0,927.3,190.089Zm-7.115,50.137.005.017c-.072-.166-.153-.325-.235-.487a.01.01,0,0,1,.009.01C920.039,239.922,920.116,240.075,920.187,240.227Zm1.166,2.326c-.161-.313-.329-.618-.484-.938C921.024,241.935,921.192,242.24,921.353,242.553ZM920.342,194.6c.161-.149.328-.3.5-.444C920.671,194.294,920.5,194.447,920.342,194.6Zm.967-.818c.185-.147.371-.288.561-.425-.018.01-.029.018-.029.018C921.648,193.508,921.483,193.644,921.309,193.778Zm.556,49.758c.457.856.937,1.7,1.422,2.544-.485-.842-.964-1.695-1.429-2.55Zm4.2,6.936c.6.893,1.214,1.773,1.846,2.631-.64-.862-1.254-1.75-1.856-2.639A.025.025,0,0,0,926.062,250.472Zm-.433-.641c-.222-.335-.438-.675-.655-1.014C925.191,249.159,925.406,249.5,925.628,249.832Zm-1.226-1.9c-.214-.357-.433-.71-.643-1.069C923.969,247.215,924.189,247.571,924.4,247.928Zm-2.061-54.894c.186-.123.374-.246.564-.359C922.715,192.79,922.527,192.911,922.341,193.034Zm5.874,60.479c.359.477.713.95,1.084,1.417-.386-.494-.767-.995-1.145-1.5A.453.453,0,0,1,928.215,253.513Zm2.4,3.053v0c-.076-.1-.159-.2-.245-.3C930.456,256.366,930.532,256.465,930.615,256.566Zm1.34,1.559c.118.136.242.268.359.4-.124-.136-.249-.269-.37-.406C931.948,258.12,931.948,258.125,931.954,258.125Zm6.4,6.344v.008c-.212-.186-.43-.373-.646-.562C937.916,264.1,938.131,264.287,938.35,264.469Zm-1.488-1.316c-.221-.207-.445-.409-.66-.622.215.206.432.406.649.608C936.857,263.144,936.857,263.149,936.862,263.153Zm3.011,2.591h0c-.212-.173-.422-.342-.632-.517C939.452,265.4,939.662,265.571,939.873,265.744Zm1.512,1.177c.017,0,.017.005.017.005-.19-.137-.379-.288-.578-.433C941.018,266.633,941.2,266.779,941.386,266.921Zm3.1,2.141c.005,0,.005.006.005.006l-.012-.009Zm-1.547-1.033c-.155-.1-.31-.217-.464-.326C942.626,267.812,942.781,267.924,942.935,268.029ZM1045,327.1c.006,0,.012,0,.019.01-.1-.049-.2-.1-.3-.156a.018.018,0,0,0,.012.006C1044.821,327.01,1044.913,327.056,1045,327.1Zm.539.266c.08.035.154.07.229.108-.081-.037-.156-.077-.237-.113Zm1.733.708c.066.022.141.044.212.068l-.23-.074Zm-.762-.283Zm1.492.512c.093.028.19.056.286.078h0c-.1-.03-.206-.053-.316-.084A.106.106,0,0,1,1048,328.306Zm.749.195c.092.018.182.04.26.06-.093-.023-.2-.044-.29-.069A.288.288,0,0,1,1048.751,328.5Zm.712.141c.1.017.2.036.29.047-.1-.014-.208-.035-.315-.05A.086.086,0,0,0,1049.463,328.642Zm.712.1c.12.017.229.028.34.037-.115-.01-.239-.022-.363-.037Zm2.187.018c.25-.028.5-.061.747-.108a.648.648,0,0,1,.073-.008c-.272.05-.557.088-.842.118Zm-.288.028c-.165.013-.334.019-.508.021h.008C1051.748,328.8,1051.909,328.794,1052.074,328.783Zm1.134-.15a7.629,7.629,0,0,0,1.042-.29l.017-.005a7.7,7.7,0,0,1-1.059.3Zm1.2-.341c.149-.054.29-.115.435-.176.073-.032.141-.059.215-.1a6.5,6.5,0,0,0,.585-.3,8.162,8.162,0,0,1-1.265.584A.18.18,0,0,0,1054.408,328.292ZM926.541,190.281c-.171.042-.323.088-.486.139a2.486,2.486,0,0,1,.244-.076C926.377,190.32,926.458,190.3,926.541,190.281Zm-1.215.383c-.1.033-.192.071-.292.1.052-.017.093-.036.137-.053S925.276,190.68,925.326,190.663Zm-1.424.582a2.474,2.474,0,0,1,.253-.115l-.421.2C923.792,191.3,923.846,191.267,923.9,191.245Zm-4,3.767c-.162.163-.325.332-.479.5C919.574,195.349,919.737,195.174,919.9,195.011Zm13.449,64.648c.153.166.311.328.469.494C933.659,259.988,933.5,259.826,933.347,259.66Zm1.386,1.441s.007,0,.007.007c.2.2.4.4.608.6l.01.01C935.146,261.514,934.936,261.308,934.733,261.1Zm116.1,67.7h.02c.142.005.279.012.417.012C1051.123,328.809,1050.979,328.8,1050.83,328.8Zm5.964-.9c.029-.021.056-.041.085-.06a.622.622,0,0,0-.068.052C1056.8,327.889,1056.8,327.889,1056.793,327.893Zm.874-.729-.021.012a.957.957,0,0,0,.1-.1.251.251,0,0,1-.038.034A.414.414,0,0,0,1057.667,327.164Z" transform="translate(-912.99 -170.763)" fill="#b7c0eb"/>
    </g>
    <g id="Group_3563" data-name="Group 3563" transform="translate(9.686)">
      <path id="Path_4766" data-name="Path 4766" d="M926.373,190.381c.19-.069.388-.136.582-.2.178-.058.359-.116.546-.169.209-.062.424-.118.635-.168.192-.045.383-.1.583-.136.315-.067.637-.13.958-.176.045-.01.087-.018.136-.025.36-.051.732-.09,1.1-.119.507-.044,1.016-.073,1.543-.076.072,0,.154.005.235.005.415,0,.836.019,1.261.041.2.015.415.037.618.057.278.026.551.048.829.086.247.03.5.074.752.117.228.035.457.064.684.108.274.053.552.117.833.176.2.047.4.085.6.14.4.1.812.207,1.221.328.076.022.148.04.222.064.485.141.974.3,1.463.479.123.042.247.1.369.142.368.129.73.27,1.1.42.179.073.358.155.538.23.317.133.631.271.947.419.191.087.384.177.573.27.443.206.874.417,1.317.649l28.454-16.328c-.294-.15-.585-.3-.868-.442-.155-.075-.3-.141-.452-.212-.179-.088-.366-.175-.552-.259-.117-.056-.235-.117-.358-.173-.2-.091-.415-.174-.619-.262-.173-.073-.351-.151-.526-.223-.067-.026-.142-.06-.211-.089-.292-.116-.583-.22-.871-.328-.133-.045-.254-.1-.384-.146a.274.274,0,0,1-.08-.031h0c-.46-.161-.918-.308-1.362-.445a.027.027,0,0,1-.021-.007c-.071-.018-.147-.035-.222-.059-.369-.107-.743-.211-1.107-.3-.038-.012-.077-.017-.1-.027-.192-.049-.383-.084-.571-.129-.245-.051-.493-.113-.74-.162-.044-.01-.1-.012-.141-.024-.219-.041-.429-.07-.647-.1s-.42-.077-.63-.1c-.049-.007-.094-.01-.15-.017-.278-.033-.551-.059-.829-.084-.173-.017-.344-.039-.513-.052a.834.834,0,0,0-.106,0c-.464-.029-.921-.046-1.374-.046l-.106,0-.006,0c-.524,0-1.034.03-1.539.071-.044,0-.094,0-.139.007-.333.031-.662.068-.982.115-.032.007-.068.012-.1.018-.265.04-.536.085-.8.136-.069.014-.133.035-.2.046-.184.041-.376.088-.564.134-.21.053-.427.106-.636.168-.186.056-.379.117-.562.176-.125.039-.251.073-.372.117-.069.025-.125.053-.194.077-.3.109-.582.231-.873.356l-.415.176c-.407.2-.816.4-1.205.634-14.023,8.147-14.435,8.181-28.463,16.329.4-.23.8-.44,1.226-.635.125-.059.253-.114.383-.17C925.778,190.614,926.075,190.489,926.373,190.381Z" transform="translate(-923.878 -170.882)" fill="url(#linear-gradient)"/>
      <path id="Path_4767" data-name="Path 4767" d="M985.5,194.427c.317.2.631.407.942.617l.753.529c.322.224.647.45.961.683.26.183.515.378.769.565.334.254.66.5,1,.761.254.2.5.4.755.6.339.273.673.543,1.008.823.254.211.5.425.756.637.354.3.706.6,1.052.916.227.2.458.4.679.609.4.365.806.74,1.208,1.121.165.159.34.32.513.487.559.539,1.116,1.084,1.667,1.641l.015.018c.549.56,1.091,1.132,1.628,1.712.192.207.378.417.572.623.339.371.68.746,1.016,1.124.208.242.419.489.638.737.3.352.6.7.9,1.059.212.246.417.5.62.747.323.4.649.8.971,1.2.185.233.374.472.56.712.4.516.805,1.041,1.191,1.573.142.183.28.364.417.547.777,1.061,1.541,2.145,2.285,3.241.115.171.235.338.351.513.52.783,1.032,1.57,1.543,2.37.068.112.136.225.2.338.439.7.865,1.41,1.287,2.123.132.219.254.437.383.651.593,1.028,1.179,2.065,1.741,3.115.131.244.259.495.39.741.266.5.525,1.009.779,1.519.179.351.353.7.52,1.05.159.322.315.649.471.971.176.364.341.728.515,1.093.147.33.3.661.445.991.166.365.326.735.484,1.1.135.31.271.62.4.935.161.379.315.764.469,1.145.125.305.249.608.373.915.152.4.31.8.457,1.206.112.3.221.591.333.885.139.383.273.77.409,1.156.115.327.23.654.341.981.124.368.241.739.358,1.108.118.352.238.7.343,1.055s.211.7.308,1.047c.112.374.222.75.327,1.124.1.354.19.715.293,1.069.1.377.2.749.291,1.124.166.657.322,1.319.469,1.978l28.455-16.325c-.128-.6-.272-1.2-.419-1.8-.021-.071-.036-.141-.058-.208-.085-.35-.178-.7-.27-1.048-.081-.311-.161-.629-.247-.937-.02-.059-.039-.119-.058-.179-.1-.358-.2-.713-.308-1.071-.1-.31-.181-.627-.274-.937-.015-.062-.042-.125-.06-.187-.091-.3-.193-.6-.286-.9-.118-.355-.222-.7-.34-1.053-.025-.072-.051-.146-.076-.216-.1-.279-.2-.562-.3-.843-.116-.35-.236-.7-.365-1.054-.03-.076-.064-.154-.089-.23-.1-.27-.2-.542-.3-.81-.127-.331-.244-.657-.374-.987-.038-.1-.08-.19-.115-.289-.113-.289-.238-.581-.349-.873s-.23-.56-.342-.842c-.047-.117-.106-.23-.147-.349-.126-.291-.253-.582-.379-.873-.1-.248-.212-.5-.32-.745-.065-.148-.131-.292-.2-.439-.129-.3-.27-.606-.414-.906-.108-.23-.2-.459-.309-.688-.074-.157-.149-.312-.222-.466-.163-.335-.373-.788-.534-1.124-.1-.2-.191-.4-.292-.6-.063-.124-.124-.241-.185-.359-.28-.55-.514-.987-.806-1.531-.087-.167-.165-.341-.258-.509-.027-.042-.05-.089-.077-.133q-.846-1.585-1.751-3.135c-.053-.1-.109-.207-.174-.307-.068-.117-.142-.232-.2-.345-.435-.724-.866-1.442-1.314-2.156-.061-.1-.115-.194-.178-.294-.507-.808-1.035-1.607-1.56-2.4-.049-.077-.1-.154-.149-.229s-.115-.166-.171-.25c-.753-1.1-1.511-2.184-2.294-3.246-.036-.05-.072-.1-.1-.151-.109-.149-.227-.293-.338-.442-.392-.518-.775-1.028-1.171-1.538-.093-.119-.184-.24-.278-.363s-.185-.226-.278-.343c-.336-.415-.671-.829-1-1.235-.126-.151-.248-.314-.373-.465-.069-.078-.137-.154-.2-.232-.327-.385-.656-.762-.983-1.145-.145-.166-.287-.342-.428-.5-.049-.053-.093-.1-.138-.153-.367-.415-.74-.821-1.114-1.233-.135-.147-.264-.3-.4-.45-.024-.023-.049-.048-.073-.069-.53-.577-1.072-1.143-1.614-1.7a.194.194,0,0,1-.021-.02c-.084-.09-.166-.164-.246-.246-.469-.471-.94-.942-1.417-1.4-.041-.042-.081-.085-.125-.124-.154-.145-.31-.288-.471-.437-.383-.364-.767-.725-1.156-1.075-.069-.068-.141-.136-.211-.2-.141-.124-.291-.246-.432-.375q-.559-.491-1.113-.97c-.107-.092-.206-.181-.318-.273s-.249-.2-.373-.307c-.351-.3-.7-.586-1.063-.872-.138-.108-.273-.224-.414-.334-.1-.078-.2-.156-.311-.241q-.507-.392-1.02-.774c-.166-.123-.327-.256-.495-.378-.085-.064-.174-.12-.258-.181-.3-.222-.6-.437-.906-.649-.206-.139-.4-.29-.6-.425-.082-.053-.163-.1-.238-.155-.286-.193-.562-.372-.842-.555-.22-.149-.444-.3-.672-.444-.068-.046-.143-.086-.21-.133-.269-.168-.527-.324-.8-.485-.235-.141-.47-.291-.7-.432-.13-.078-.268-.157-.4-.23-.434-.246-.863-.488-1.291-.721-.16-.091-.32-.164-.48-.251-.225-.112-.438-.232-.656-.342-.179-.086-.352-.185-.533-.271-.259-.13-.525-.249-.793-.376l-.611-.287c-.087-.036-.167-.078-.254-.12-.477-.214-.955-.41-1.438-.608l-.19-.083c-.012,0-.02-.01-.03-.012-.557-.221-1.117-.432-1.667-.627-.056-.02-.117-.035-.173-.054-.2-.074-.408-.136-.615-.2-.3-.1-.6-.2-.9-.3-.112-.038-.229-.061-.346-.1-.25-.073-.5-.139-.744-.205-.209-.056-.419-.121-.629-.172-.163-.043-.331-.075-.492-.113-.27-.059-.538-.125-.8-.178-.157-.033-.31-.076-.465-.1-.19-.04-.384-.065-.573-.1-.293-.047-.579-.1-.857-.141-.129-.016-.259-.043-.383-.061-.206-.027-.4-.04-.6-.061-.317-.035-.633-.076-.942-.1-.117-.01-.236-.023-.346-.032-.181-.014-.351-.012-.532-.02-.361-.02-.721-.03-1.072-.038-.13,0-.311-.133-.432-.133-.317,0-.625.014-.935.024a.849.849,0,0,0-.119.005c-.379.014-.7.157-1.07.193-.138.01-.279.031-.415.048s-.293.029-.434.049c-.481.061-.967.133-1.44.225-.036.007-.076.012-.1.02h-.009c-.531.1-1.058.23-1.571.374-.167.048-.335.107-.495.156-.282.085-.569.165-.848.262-.056.021-.113.047-.168.068-.383.136-.761.3-1.14.461-.174.073-.351.14-.526.22-.544.254-1.076.528-1.591.831-14.026,8.143-14.44,8.18-28.461,16.33.521-.3,1.047-.577,1.591-.829.187-.086.379-.157.569-.24.366-.154.723-.305,1.1-.444.348-.122.695-.231,1.036-.337.158-.048.313-.1.473-.143a21.716,21.716,0,0,1,3.152-.627c.129-.015.257-.03.394-.042.516-.056,1.034-.106,1.562-.125h.066c.447-.021.9-.019,1.357-.013.353,0,.713.016,1.07.036.3.015.592.028.891.053s.611.061.922.094c.327.038.669.077,1,.126.265.045.536.088.811.136.366.066.737.132,1.1.212.254.052.5.109.754.167.391.09.774.19,1.166.294.235.068.462.126.7.194.444.127.882.269,1.33.417.179.059.358.11.538.177.626.216,1.259.447,1.881.7.069.025.13.056.2.078q.845.35,1.708.739c.192.088.383.18.576.271.445.21.886.427,1.331.653.224.114.452.229.676.35.585.31,1.172.625,1.76.963.351.2.689.416,1.037.624l.877.535C984.965,194.072,985.23,194.251,985.5,194.427Z" transform="translate(-927.101 -170.621)" fill="url(#linear-gradient-2)"/>
      <path id="Path_4768" data-name="Path 4768" d="M1106.208,312.721q-.009-.4-.038-.8c0-.042-.005-.081-.005-.125s-.006-.08-.013-.12c-.012-.19-.023-.375-.043-.563-.025-.273-.056-.545-.094-.82,0-.066-.018-.138-.028-.206a1.769,1.769,0,0,1-.024-.192c-.022-.144-.039-.291-.066-.438-.04-.286-.093-.573-.146-.861-.02-.092-.037-.179-.057-.271-.011-.066-.024-.13-.042-.2-.027-.134-.051-.266-.083-.4-.066-.3-.134-.6-.211-.9-.019-.1-.048-.185-.065-.277a2.17,2.17,0,0,1-.063-.231c-.037-.131-.068-.263-.1-.4-.086-.3-.174-.6-.269-.9-.024-.1-.06-.192-.084-.285-.027-.074-.051-.142-.07-.211-.044-.129-.087-.259-.129-.388-.093-.291-.2-.585-.3-.874-.035-.11-.081-.221-.125-.33a2.067,2.067,0,0,0-.075-.2c-.036-.108-.071-.214-.117-.318-.1-.278-.215-.553-.333-.829-.063-.148-.124-.3-.192-.447-.024-.055-.052-.112-.076-.168a1.552,1.552,0,0,0-.085-.2c-.125-.281-.247-.564-.379-.842-.091-.186-.185-.374-.271-.56-.026-.055-.055-.109-.081-.162s-.048-.1-.072-.152c-.169-.332-.337-.663-.511-.994-.056-.1-.118-.2-.171-.3-.1-.2-.217-.393-.33-.591-.1-.182-.2-.37-.3-.546-.059-.1-.128-.2-.19-.3-.315-.532-.642-1.052-.985-1.573-.075-.112-.135-.229-.212-.337-.029-.044-.06-.085-.093-.127-.126-.2-.27-.391-.411-.588-.175-.249-.348-.51-.535-.759-.062-.083-.124-.163-.186-.246s-.135-.178-.2-.267c-.111-.148-.211-.263-.323-.407q-.334-.418-.668-.82c-.024-.029-.047-.06-.076-.089s-.052-.063-.078-.1c-.161-.188-.33-.4-.488-.588-.218-.244-.434-.487-.657-.725-.019-.027-.044-.05-.062-.074a.444.444,0,0,1-.073-.073c-.181-.192-.359-.379-.547-.567-.229-.243-.469-.476-.711-.7a.108.108,0,0,0-.023-.026c-.013-.012-.02-.019-.03-.028-.225-.213-.447-.424-.674-.628s-.464-.407-.7-.609l-28.455,16.328q.685.586,1.354,1.218c.021.022.037.035.057.053.42.406.837.831,1.242,1.263.037.041.076.08.113.119q.6.642,1.17,1.32c.036.043.073.085.109.13.367.434.72.877,1.067,1.333.061.086.129.176.2.263.254.338.5.686.739,1.033.133.185.27.367.393.557.112.162.209.327.321.491.333.511.662,1.032.972,1.557.166.279.327.557.488.835.111.2.23.4.341.6.254.481.508.962.746,1.448.028.055.052.107.084.161.254.534.5,1.065.734,1.6.024.053.047.108.068.162.236.535.447,1.069.651,1.613.033.063.049.122.074.181.2.535.384,1.073.558,1.61.02.061.044.127.064.193.166.532.32,1.067.462,1.6.02.068.038.136.056.2.137.536.261,1.063.364,1.594q.02.1.045.2c.105.533.191,1.058.266,1.58.005.061.016.121.025.181.068.534.129,1.062.166,1.589,0,.042.007.083.007.125.036.56.062,1.11.062,1.664-.005.314-.012.624-.025.931-.007.071-.011.142-.011.214-.017.225-.032.447-.049.667-.013.11-.024.22-.037.329-.019.173-.039.347-.065.516-.015.125-.028.246-.047.363-.032.165-.056.322-.088.474-.024.133-.049.256-.074.385-.031.144-.06.288-.1.428s-.075.29-.109.434c-.038.126-.074.254-.114.382-.055.174-.109.343-.171.519-.032.1-.068.194-.106.29-.112.294-.23.582-.359.856-.012.029-.031.058-.043.089a11.459,11.459,0,0,1-.574,1.038.556.556,0,0,0-.05.083c-.173.27-.36.525-.551.77-.044.059-.1.115-.144.171-.187.22-.377.439-.583.638a.5.5,0,0,1-.047.052,7.948,7.948,0,0,1-.681.589l-.169.132a8.927,8.927,0,0,1-.748.5c14.024-8.147,14.434-8.181,28.46-16.331a6.861,6.861,0,0,0,.736-.5,1.352,1.352,0,0,0,.181-.134,7.336,7.336,0,0,0,.682-.583c.019-.016.031-.036.048-.053.207-.2.391-.415.578-.636.047-.059.1-.117.141-.177.189-.243.379-.5.55-.761a.209.209,0,0,0,.015-.02c.017-.029.029-.056.041-.077a10.111,10.111,0,0,0,.571-1.03.6.6,0,0,0,.029-.056l.013-.028c.131-.28.255-.566.366-.859a.268.268,0,0,1,.031-.076c.024-.072.041-.137.068-.206.061-.177.122-.362.179-.547a1.065,1.065,0,0,1,.048-.138c.021-.063.03-.131.053-.2.042-.161.084-.319.121-.488a1.1,1.1,0,0,0,.048-.175c.013-.068.025-.14.043-.2.026-.134.06-.271.084-.41.011-.073.028-.141.043-.214s.024-.167.038-.253c.015-.124.035-.242.053-.368.006-.061.018-.125.026-.183.012-.1.024-.207.033-.307.017-.125.029-.246.036-.372,0-.046.009-.09.016-.134.013-.143.019-.288.024-.436.009-.1.014-.208.022-.31,0-.018,0-.035,0-.051.011-.269.02-.54.02-.816v-.047C1106.221,313.216,1106.212,312.969,1106.208,312.721Z" transform="translate(-939.433 -183.469)" fill="url(#linear-gradient-3)"/>
      <path id="Path_4769" data-name="Path 4769" d="M1040.089,261.966c.072.049.151.109.227.163.272.184.537.376.8.574.15.111.3.23.452.344.2.148.4.3.586.457.163.127.324.262.486.391.192.158.375.308.563.469s.352.308.532.463.333.3.5.442c.172.163.346.326.521.49s.34.315.506.476.343.334.508.506.329.319.49.485.311.324.465.488.338.359.513.549c.154.166.3.337.457.508s.311.347.465.525.311.359.462.542.312.367.459.548c.163.2.323.4.486.6.141.179.284.358.425.538.186.236.363.473.545.713.118.161.244.322.366.487q.6.831,1.188,1.685c.1.14.191.291.291.434.2.31.413.623.614.936.106.168.211.332.316.5.19.307.383.619.57.928.089.16.189.319.283.482.364.614.713,1.24,1.051,1.871.085.158.169.324.256.483.149.283.3.566.438.848.111.226.22.451.334.673.087.185.176.368.261.546.123.254.239.507.353.76.079.17.159.341.233.508.366.825.713,1.654,1.035,2.485.056.144.107.29.159.432.1.281.212.564.312.844.061.179.124.361.185.543.086.244.166.482.239.724.069.2.13.393.194.588.082.252.156.5.231.752.048.176.1.355.154.537.079.267.146.537.222.806.042.176.092.35.133.529.076.3.144.6.21.9.033.132.064.256.1.392.093.427.18.852.26,1.279.02.109.036.217.056.323.053.319.111.639.16.956.024.152.042.3.06.455.043.275.084.552.112.826.019.155.038.31.052.462.043.365.079.732.107,1.092l28.454-16.328c-.021-.235-.038-.471-.057-.705-.011-.13-.031-.259-.043-.388-.02-.151-.036-.3-.056-.46-.013-.092-.018-.183-.032-.278-.02-.195-.053-.39-.08-.584-.016-.131-.037-.26-.054-.394-.009-.06-.018-.114-.024-.176-.053-.314-.106-.625-.162-.941-.012-.054-.016-.108-.031-.162a.567.567,0,0,1-.012-.059c-.075-.406-.156-.806-.242-1.206a.341.341,0,0,1-.011-.048c-.025-.1-.051-.214-.074-.319-.062-.279-.125-.562-.2-.842-.013-.049-.023-.1-.036-.149-.038-.147-.082-.3-.118-.447-.056-.214-.113-.423-.165-.635-.021-.073-.052-.157-.069-.232-.044-.163-.1-.325-.142-.486s-.1-.339-.149-.509c-.032-.11-.069-.22-.106-.33-.052-.159-.106-.32-.157-.48-.042-.132-.077-.264-.121-.4-.052-.149-.1-.3-.161-.445s-.107-.317-.163-.475c-.028-.089-.062-.177-.091-.262-.075-.21-.156-.414-.232-.617-.046-.134-.1-.264-.15-.4-.015-.044-.033-.1-.052-.139-.149-.379-.3-.755-.453-1.132s-.319-.751-.483-1.122a1.208,1.208,0,0,1-.065-.152c-.051-.111-.106-.222-.156-.334-.1-.222-.2-.449-.3-.673-.037-.083-.081-.167-.126-.251-.072-.153-.148-.308-.222-.464s-.145-.314-.229-.466c-.045-.1-.092-.185-.142-.278-.123-.25-.254-.5-.384-.746-.071-.144-.149-.29-.222-.429-.033-.059-.061-.113-.093-.166-.334-.618-.676-1.226-1.033-1.834a1.184,1.184,0,0,0-.082-.144c-.067-.121-.141-.236-.208-.353-.181-.294-.361-.589-.542-.882-.122-.188-.239-.379-.359-.563-.183-.288-.368-.571-.556-.853-.08-.121-.159-.244-.241-.366a1.473,1.473,0,0,0-.1-.139c-.384-.565-.775-1.116-1.175-1.664-.033-.044-.066-.094-.1-.133-.085-.125-.184-.246-.278-.369-.166-.227-.34-.452-.512-.675-.062-.081-.118-.159-.181-.235-.1-.123-.2-.242-.3-.364-.145-.179-.286-.357-.428-.534-.068-.084-.136-.166-.206-.247-.1-.126-.212-.247-.315-.372-.132-.154-.261-.309-.391-.463-.067-.074-.129-.149-.189-.22-.12-.132-.235-.257-.348-.384-.142-.155-.28-.314-.42-.465-.053-.061-.1-.117-.157-.176-.123-.13-.252-.257-.369-.391-.145-.147-.286-.3-.428-.444-.053-.059-.1-.109-.155-.159-.132-.133-.259-.261-.391-.385-.161-.162-.32-.322-.481-.474-.037-.041-.08-.085-.126-.127-.123-.121-.253-.236-.381-.356-.164-.152-.329-.313-.5-.464-.049-.042-.091-.088-.141-.133-.138-.124-.28-.241-.415-.361l-.489-.429c-.05-.04-.086-.079-.134-.116-.142-.117-.285-.231-.428-.348-.163-.137-.322-.269-.491-.4a1.09,1.09,0,0,0-.1-.091c-.165-.128-.334-.253-.5-.381-.142-.109-.277-.217-.427-.326a.744.744,0,0,0-.086-.066l-.005,0h0l.005,0c-.2-.147-.4-.284-.6-.428-.125-.087-.249-.181-.375-.261a.25.25,0,0,0-.017-.02q-.492-.327-.971-.642l-.027-.012c-.115-.073-.227-.14-.344-.212-.2-.124-.4-.246-.6-.363l-.222-.131c-.246-.144-.5-.284-.749-.415-.29-.164-.578-.31-.867-.455a.418.418,0,0,1-.073-.039c-.005,0-.005,0-.005,0-.322-.157-.639-.305-.948-.443-.188-.085-.375-.158-.552-.237l-.222-.091c-.052-.024-.1-.048-.162-.072-.311-.123-.618-.238-.927-.35l-.341-.11c-.087-.027-.175-.055-.253-.082-.12-.039-.234-.079-.344-.111-.309-.094-.625-.181-.932-.26-.076-.02-.149-.035-.224-.05l-28.454,16.325c.5.117.991.262,1.486.426a2.377,2.377,0,0,1,.266.085q.715.231,1.431.528l.217.089c.5.212,1.008.441,1.513.689a.243.243,0,0,1,.034.019q.827.41,1.653.889c.318.182.635.376.95.579l.19.109Q1039.555,261.6,1040.089,261.966Z" transform="translate(-935.737 -178.449)" fill="url(#linear-gradient-4)"/>
    </g>
    <g id="Group_3564" data-name="Group 3564" transform="translate(0 16.45)">
      <path id="Path_4770" data-name="Path 4770" d="M1048.01,292.509c7.57,6.416,13.021,17.506,13,26.479-.032,10.725-7.651,15.065-16.991,9.673L946.16,272.166c-18.348-10.591-33.226-36.366-33.17-57.457.062-20.5,14.033-29.209,31.83-19.884,7.876-7.6,20.412-7.618,33.545-.036,18.337,10.589,34.691,34.1,39.864,57.275a24.973,24.973,0,0,1,6.6,2.724C1036.788,261.691,1046.931,278.22,1048.01,292.509Z" transform="translate(-912.99 -189.113)" fill="#eff1fe"/>
      <path id="Path_4771" data-name="Path 4771" d="M1052.575,324.128a7.739,7.739,0,0,1-3.674-1.268l-97.858-56.493c-15.912-9.189-29.315-32.387-29.256-50.661.01-4.76,1.068-15.821,10.564-15.821a21.853,21.853,0,0,1,9.805,2.839l5,2.622,4.059-3.922a13.031,13.031,0,0,1,9.4-3.52c4.441,0,9.563,1.6,14.81,4.63,16.551,9.56,31.414,31.027,36.142,52.207l1.064,4.769,4.754,1.133a17.118,17.118,0,0,1,4.5,1.888c9.755,5.629,18.408,19.776,19.294,31.535l.246,3.263,2.5,2.117c5.756,4.879,10.25,13.88,10.23,20.488C1054.154,320.363,1054.1,324.13,1052.575,324.128Z" transform="translate(-913.961 -190.084)" fill="url(#linear-gradient-5)"/>
    </g>
  </g>
</svg>
