<svg id="facebook" xmlns="http://www.w3.org/2000/svg" width="29.32" height="29.32" viewBox="0 0 29.32 29.32">
  <g id="Social_Facebook" data-name="Social/Facebook" transform="translate(0 0)">
    <path id="Path" d="M19.49,29.32V18.728h3.948l.591-4.584H19.49V11.218c0-1.327.369-2.231,2.271-2.231h2.427v-4.1A32.446,32.446,0,0,0,20.651,4.7c-3.5,0-5.9,2.136-5.9,6.059v3.38H10.8v4.584h3.958V29.32H2.932A2.932,2.932,0,0,1,0,26.388V2.932A2.932,2.932,0,0,1,2.932,0H26.388A2.932,2.932,0,0,1,29.32,2.932V26.388a2.932,2.932,0,0,1-2.932,2.932Z" transform="translate(0 0)"/>
  </g>
</svg>
