<svg xmlns="http://www.w3.org/2000/svg" width="35.184" height="27.932" viewBox="0 0 35.184 27.932"><g transform="translate(0 0)"><path d="M4.172,5.7a1.361,1.361,0,0,0-.444-1.149L.444.591V0h10.2l7.884,17.291L25.46,0h9.724V.591L32.375,3.284a.823.823,0,0,0-.312.789V23.861a.822.822,0,0,0,.312.787l2.743,2.693v.591H21.32v-.591l2.843-2.759c.279-.279.279-.361.279-.787V7.8l-7.9,20.067H15.474L6.274,7.8V21.25a1.856,1.856,0,0,0,.509,1.542l3.7,4.483v.592H0v-.592l3.7-4.483a1.787,1.787,0,0,0,.476-1.542V5.7Z" fill="#646ecb"/></g></svg>