<svg id="twitter" xmlns="http://www.w3.org/2000/svg" width="29.32" height="23.827" viewBox="0 0 29.32 23.827">
  <g id="Social_Twitter" data-name="Social/Twitter" transform="translate(0 0)">
    <path id="Shape" d="M29.32,2.821a12.01,12.01,0,0,1-3.455.947A6.025,6.025,0,0,0,28.51.44,12.05,12.05,0,0,1,24.69,1.9,6.019,6.019,0,0,0,14.439,7.385,17.077,17.077,0,0,1,2.041,1.1,6.023,6.023,0,0,0,3.9,9.132a5.99,5.99,0,0,1-2.723-.753A6.02,6.02,0,0,0,6,14.353a6.029,6.029,0,0,1-2.717.1,6.02,6.02,0,0,0,5.62,4.177A12.1,12.1,0,0,1,0,21.125a17.029,17.029,0,0,0,9.221,2.7c11.168,0,17.478-9.432,17.1-17.892A12.247,12.247,0,0,0,29.32,2.821Z" transform="translate(0 0)" fill="#646ecb"/>
  </g>
</svg>
